STARTFONT 2.1
COMMENT Exported by Fony v1.4.7
FONT 7Segment48
SIZE 64 96 96
FONTBOUNDINGBOX 52 63 0 -3
STARTPROPERTIES 6
COPYRIGHT ""
RESOLUTION_X 96
RESOLUTION_Y 96
FONT_ASCENT 61
FONT_DESCENT 3
DEFAULT_CHAR 0
ENDPROPERTIES
CHARS 256
STARTCHAR 000
ENCODING 0
SWIDTH 1368 0
DWIDTH 19 0
BBX 0 0 0 0
BITMAP
ENDCHAR
STARTCHAR 001
ENCODING 1
SWIDTH 1152 0
DWIDTH 16 0
BBX 14 42 1 -2
BITMAP
FFFC
FFFC
FFFC
E01C
E01C
E01C
E01C
E01C
E01C
E01C
E01C
E01C
E01C
E01C
E01C
E01C
E01C
E01C
E01C
E01C
E01C
E01C
E01C
E01C
E01C
E01C
E01C
E01C
E01C
E01C
E01C
E01C
E01C
E01C
E01C
E01C
E01C
E01C
E01C
FFFC
FFFC
FFFC
ENDCHAR
STARTCHAR 002
ENCODING 2
SWIDTH 1656 0
DWIDTH 23 0
BBX 0 0 0 0
BITMAP
ENDCHAR
STARTCHAR 003
ENCODING 3
SWIDTH 1152 0
DWIDTH 16 0
BBX 14 42 1 -2
BITMAP
FFFC
FFFC
FFFC
E01C
E01C
E01C
E01C
E01C
E01C
E01C
E01C
E01C
E01C
E01C
E01C
E01C
E01C
E01C
E01C
E01C
E01C
E01C
E01C
E01C
E01C
E01C
E01C
E01C
E01C
E01C
E01C
E01C
E01C
E01C
E01C
E01C
E01C
E01C
E01C
FFFC
FFFC
FFFC
ENDCHAR
STARTCHAR 004
ENCODING 4
SWIDTH 1152 0
DWIDTH 16 0
BBX 14 42 1 -2
BITMAP
FFFC
FFFC
FFFC
E01C
E01C
E01C
E01C
E01C
E01C
E01C
E01C
E01C
E01C
E01C
E01C
E01C
E01C
E01C
E01C
E01C
E01C
E01C
E01C
E01C
E01C
E01C
E01C
E01C
E01C
E01C
E01C
E01C
E01C
E01C
E01C
E01C
E01C
E01C
E01C
FFFC
FFFC
FFFC
ENDCHAR
STARTCHAR 005
ENCODING 5
SWIDTH 1152 0
DWIDTH 16 0
BBX 14 42 1 -2
BITMAP
FFFC
FFFC
FFFC
E01C
E01C
E01C
E01C
E01C
E01C
E01C
E01C
E01C
E01C
E01C
E01C
E01C
E01C
E01C
E01C
E01C
E01C
E01C
E01C
E01C
E01C
E01C
E01C
E01C
E01C
E01C
E01C
E01C
E01C
E01C
E01C
E01C
E01C
E01C
E01C
FFFC
FFFC
FFFC
ENDCHAR
STARTCHAR 006
ENCODING 6
SWIDTH 1152 0
DWIDTH 16 0
BBX 14 42 1 -2
BITMAP
FFFC
FFFC
FFFC
E01C
E01C
E01C
E01C
E01C
E01C
E01C
E01C
E01C
E01C
E01C
E01C
E01C
E01C
E01C
E01C
E01C
E01C
E01C
E01C
E01C
E01C
E01C
E01C
E01C
E01C
E01C
E01C
E01C
E01C
E01C
E01C
E01C
E01C
E01C
E01C
FFFC
FFFC
FFFC
ENDCHAR
STARTCHAR 007
ENCODING 7
SWIDTH 1152 0
DWIDTH 16 0
BBX 14 42 1 -2
BITMAP
FFFC
FFFC
FFFC
E01C
E01C
E01C
E01C
E01C
E01C
E01C
E01C
E01C
E01C
E01C
E01C
E01C
E01C
E01C
E01C
E01C
E01C
E01C
E01C
E01C
E01C
E01C
E01C
E01C
E01C
E01C
E01C
E01C
E01C
E01C
E01C
E01C
E01C
E01C
E01C
FFFC
FFFC
FFFC
ENDCHAR
STARTCHAR 008
ENCODING 8
SWIDTH 1152 0
DWIDTH 16 0
BBX 14 42 1 -2
BITMAP
FFFC
FFFC
FFFC
E01C
E01C
E01C
E01C
E01C
E01C
E01C
E01C
E01C
E01C
E01C
E01C
E01C
E01C
E01C
E01C
E01C
E01C
E01C
E01C
E01C
E01C
E01C
E01C
E01C
E01C
E01C
E01C
E01C
E01C
E01C
E01C
E01C
E01C
E01C
E01C
FFFC
FFFC
FFFC
ENDCHAR
STARTCHAR 009
ENCODING 9
SWIDTH 0 0
DWIDTH 0 0
BBX 0 0 0 0
BITMAP
ENDCHAR
STARTCHAR 010
ENCODING 10
SWIDTH 0 0
DWIDTH 0 0
BBX 0 0 0 0
BITMAP
ENDCHAR
STARTCHAR 011
ENCODING 11
SWIDTH 1152 0
DWIDTH 16 0
BBX 14 42 1 -2
BITMAP
FFFC
FFFC
FFFC
E01C
E01C
E01C
E01C
E01C
E01C
E01C
E01C
E01C
E01C
E01C
E01C
E01C
E01C
E01C
E01C
E01C
E01C
E01C
E01C
E01C
E01C
E01C
E01C
E01C
E01C
E01C
E01C
E01C
E01C
E01C
E01C
E01C
E01C
E01C
E01C
FFFC
FFFC
FFFC
ENDCHAR
STARTCHAR 012
ENCODING 12
SWIDTH 2520 0
DWIDTH 35 0
BBX 30 30 3 -2
BITMAP
00020000
00070000
000F8000
001FC000
003FE000
007FF000
00FFF800
01FFFC00
03FFFE00
07FFFF00
0FFFFF80
1FFFFFC0
3FFFFFE0
7FFFFFF0
FFFFFFF8
FFFFFFFC
FFFFFFFC
FFBFFFFC
FF3FE7FC
FE3FE3FC
FC3FE1FC
F83FE0FC
F03FE07C
E03FE03C
C03FE01C
803FE00C
003FE004
003FE000
003FE000
003FE000
ENDCHAR
STARTCHAR 013
ENCODING 13
SWIDTH 0 0
DWIDTH 0 0
BBX 0 0 0 0
BITMAP
ENDCHAR
STARTCHAR 014
ENCODING 14
SWIDTH 1152 0
DWIDTH 16 0
BBX 14 42 1 -2
BITMAP
FFFC
FFFC
FFFC
E01C
E01C
E01C
E01C
E01C
E01C
E01C
E01C
E01C
E01C
E01C
E01C
E01C
E01C
E01C
E01C
E01C
E01C
E01C
E01C
E01C
E01C
E01C
E01C
E01C
E01C
E01C
E01C
E01C
E01C
E01C
E01C
E01C
E01C
E01C
E01C
FFFC
FFFC
FFFC
ENDCHAR
STARTCHAR 015
ENCODING 15
SWIDTH 1152 0
DWIDTH 16 0
BBX 14 42 1 -2
BITMAP
FFFC
FFFC
FFFC
E01C
E01C
E01C
E01C
E01C
E01C
E01C
E01C
E01C
E01C
E01C
E01C
E01C
E01C
E01C
E01C
E01C
E01C
E01C
E01C
E01C
E01C
E01C
E01C
E01C
E01C
E01C
E01C
E01C
E01C
E01C
E01C
E01C
E01C
E01C
E01C
FFFC
FFFC
FFFC
ENDCHAR
STARTCHAR 016
ENCODING 16
SWIDTH 1152 0
DWIDTH 16 0
BBX 14 42 1 -2
BITMAP
FFFC
FFFC
FFFC
E01C
E01C
E01C
E01C
E01C
E01C
E01C
E01C
E01C
E01C
E01C
E01C
E01C
E01C
E01C
E01C
E01C
E01C
E01C
E01C
E01C
E01C
E01C
E01C
E01C
E01C
E01C
E01C
E01C
E01C
E01C
E01C
E01C
E01C
E01C
E01C
FFFC
FFFC
FFFC
ENDCHAR
STARTCHAR 017
ENCODING 17
SWIDTH 1152 0
DWIDTH 16 0
BBX 14 42 1 -2
BITMAP
FFFC
FFFC
FFFC
E01C
E01C
E01C
E01C
E01C
E01C
E01C
E01C
E01C
E01C
E01C
E01C
E01C
E01C
E01C
E01C
E01C
E01C
E01C
E01C
E01C
E01C
E01C
E01C
E01C
E01C
E01C
E01C
E01C
E01C
E01C
E01C
E01C
E01C
E01C
E01C
FFFC
FFFC
FFFC
ENDCHAR
STARTCHAR 018
ENCODING 18
SWIDTH 1152 0
DWIDTH 16 0
BBX 14 42 1 -2
BITMAP
FFFC
FFFC
FFFC
E01C
E01C
E01C
E01C
E01C
E01C
E01C
E01C
E01C
E01C
E01C
E01C
E01C
E01C
E01C
E01C
E01C
E01C
E01C
E01C
E01C
E01C
E01C
E01C
E01C
E01C
E01C
E01C
E01C
E01C
E01C
E01C
E01C
E01C
E01C
E01C
FFFC
FFFC
FFFC
ENDCHAR
STARTCHAR 019
ENCODING 19
SWIDTH 1152 0
DWIDTH 16 0
BBX 14 42 1 -2
BITMAP
FFFC
FFFC
FFFC
E01C
E01C
E01C
E01C
E01C
E01C
E01C
E01C
E01C
E01C
E01C
E01C
E01C
E01C
E01C
E01C
E01C
E01C
E01C
E01C
E01C
E01C
E01C
E01C
E01C
E01C
E01C
E01C
E01C
E01C
E01C
E01C
E01C
E01C
E01C
E01C
FFFC
FFFC
FFFC
ENDCHAR
STARTCHAR 020
ENCODING 20
SWIDTH 1152 0
DWIDTH 16 0
BBX 14 42 1 -2
BITMAP
FFFC
FFFC
FFFC
E01C
E01C
E01C
E01C
E01C
E01C
E01C
E01C
E01C
E01C
E01C
E01C
E01C
E01C
E01C
E01C
E01C
E01C
E01C
E01C
E01C
E01C
E01C
E01C
E01C
E01C
E01C
E01C
E01C
E01C
E01C
E01C
E01C
E01C
E01C
E01C
FFFC
FFFC
FFFC
ENDCHAR
STARTCHAR 021
ENCODING 21
SWIDTH 1152 0
DWIDTH 16 0
BBX 14 42 1 -2
BITMAP
FFFC
FFFC
FFFC
E01C
E01C
E01C
E01C
E01C
E01C
E01C
E01C
E01C
E01C
E01C
E01C
E01C
E01C
E01C
E01C
E01C
E01C
E01C
E01C
E01C
E01C
E01C
E01C
E01C
E01C
E01C
E01C
E01C
E01C
E01C
E01C
E01C
E01C
E01C
E01C
FFFC
FFFC
FFFC
ENDCHAR
STARTCHAR 022
ENCODING 22
SWIDTH 1152 0
DWIDTH 16 0
BBX 14 42 1 -2
BITMAP
FFFC
FFFC
FFFC
E01C
E01C
E01C
E01C
E01C
E01C
E01C
E01C
E01C
E01C
E01C
E01C
E01C
E01C
E01C
E01C
E01C
E01C
E01C
E01C
E01C
E01C
E01C
E01C
E01C
E01C
E01C
E01C
E01C
E01C
E01C
E01C
E01C
E01C
E01C
E01C
FFFC
FFFC
FFFC
ENDCHAR
STARTCHAR 023
ENCODING 23
SWIDTH 1152 0
DWIDTH 16 0
BBX 14 42 1 -2
BITMAP
FFFC
FFFC
FFFC
E01C
E01C
E01C
E01C
E01C
E01C
E01C
E01C
E01C
E01C
E01C
E01C
E01C
E01C
E01C
E01C
E01C
E01C
E01C
E01C
E01C
E01C
E01C
E01C
E01C
E01C
E01C
E01C
E01C
E01C
E01C
E01C
E01C
E01C
E01C
E01C
FFFC
FFFC
FFFC
ENDCHAR
STARTCHAR 024
ENCODING 24
SWIDTH 1152 0
DWIDTH 16 0
BBX 14 42 1 -2
BITMAP
FFFC
FFFC
FFFC
E01C
E01C
E01C
E01C
E01C
E01C
E01C
E01C
E01C
E01C
E01C
E01C
E01C
E01C
E01C
E01C
E01C
E01C
E01C
E01C
E01C
E01C
E01C
E01C
E01C
E01C
E01C
E01C
E01C
E01C
E01C
E01C
E01C
E01C
E01C
E01C
FFFC
FFFC
FFFC
ENDCHAR
STARTCHAR 025
ENCODING 25
SWIDTH 1152 0
DWIDTH 16 0
BBX 14 42 1 -2
BITMAP
FFFC
FFFC
FFFC
E01C
E01C
E01C
E01C
E01C
E01C
E01C
E01C
E01C
E01C
E01C
E01C
E01C
E01C
E01C
E01C
E01C
E01C
E01C
E01C
E01C
E01C
E01C
E01C
E01C
E01C
E01C
E01C
E01C
E01C
E01C
E01C
E01C
E01C
E01C
E01C
FFFC
FFFC
FFFC
ENDCHAR
STARTCHAR 026
ENCODING 26
SWIDTH 1152 0
DWIDTH 16 0
BBX 14 42 1 -2
BITMAP
FFFC
FFFC
FFFC
E01C
E01C
E01C
E01C
E01C
E01C
E01C
E01C
E01C
E01C
E01C
E01C
E01C
E01C
E01C
E01C
E01C
E01C
E01C
E01C
E01C
E01C
E01C
E01C
E01C
E01C
E01C
E01C
E01C
E01C
E01C
E01C
E01C
E01C
E01C
E01C
FFFC
FFFC
FFFC
ENDCHAR
STARTCHAR 027
ENCODING 27
SWIDTH 1152 0
DWIDTH 16 0
BBX 14 42 1 -2
BITMAP
FFFC
FFFC
FFFC
E01C
E01C
E01C
E01C
E01C
E01C
E01C
E01C
E01C
E01C
E01C
E01C
E01C
E01C
E01C
E01C
E01C
E01C
E01C
E01C
E01C
E01C
E01C
E01C
E01C
E01C
E01C
E01C
E01C
E01C
E01C
E01C
E01C
E01C
E01C
E01C
FFFC
FFFC
FFFC
ENDCHAR
STARTCHAR 028
ENCODING 28
SWIDTH 0 0
DWIDTH 0 0
BBX 0 0 0 0
BITMAP
ENDCHAR
STARTCHAR 029
ENCODING 29
SWIDTH 0 0
DWIDTH 0 0
BBX 0 0 0 0
BITMAP
ENDCHAR
STARTCHAR 030
ENCODING 30
SWIDTH 0 0
DWIDTH 0 0
BBX 0 0 0 0
BITMAP
ENDCHAR
STARTCHAR 031
ENCODING 31
SWIDTH 0 0
DWIDTH 0 0
BBX 0 0 0 0
BITMAP
ENDCHAR
STARTCHAR 032
ENCODING 32
SWIDTH 936 0
DWIDTH 13 0
BBX 0 0 0 0
BITMAP
ENDCHAR
STARTCHAR 033
ENCODING 33
SWIDTH 3744 0
DWIDTH 52 0
BBX 0 0 0 0
BITMAP
ENDCHAR
STARTCHAR 034
ENCODING 34
SWIDTH 1224 0
DWIDTH 17 0
BBX 12 12 2 20
BITMAP
F0F0
F0F0
F0F0
F0F0
F0F0
F0F0
F0F0
F0F0
F0F0
6060
6060
6060
ENDCHAR
STARTCHAR 035
ENCODING 35
SWIDTH 1944 0
DWIDTH 27 0
BBX 25 34 1 -2
BITMAP
00700E00
00700E00
00F01C00
00E01C00
00E01C00
00E01C00
00E01C00
01E03800
01C03800
3FFFFF80
3FFFFF80
3FFFFF80
03807000
03807000
03807000
03807000
03807000
0700E000
0700E000
0700E000
0700E000
FFFFFE00
FFFFFE00
FFFFFE00
0E01C000
0E01C000
0E03C000
1C038000
1C038000
1C038000
1C038000
1C078000
38070000
38070000
ENDCHAR
STARTCHAR 036
ENCODING 36
SWIDTH 1944 0
DWIDTH 27 0
BBX 23 40 2 -3
BITMAP
003800
003800
003800
003800
01FF00
07FFC0
0FFFE0
1FFFF0
3F39F8
3C38F8
7C387C
78383C
78383C
783800
783800
783800
7C3800
3E3800
3F3800
1FF800
0FFF80
07FFE0
00FFF0
003FF8
0038FC
00387C
00383E
00381E
00381E
00381E
F0381E
F0381E
F8381E
78383C
7C387C
3F39F8
3FFFF0
1FFFE0
07FFC0
01FF00
ENDCHAR
STARTCHAR 037
ENCODING 37
SWIDTH 3096 0
DWIDTH 43 0
BBX 37 36 3 -3
BITMAP
07E0000000
1FF8003C00
3FFC003800
7C3E007800
781E007000
F81F00E000
F00F00E000
F00F01C000
F00F03C000
F00F038000
F00F078000
F00F070000
F81F0E0000
781E1E0000
7C3E1C0000
3FFC3C0000
1FF8380000
07E0700000
0000703F00
0000E0FFC0
0001E1FFE0
0001C3E1F0
0003C3C0F0
00038780F8
0007078078
0007078078
000E078078
001E078078
001C078078
003C078078
003807C0F8
007003C0F0
00F003E1F0
00E001FFE0
01E000FFC0
0000003F00
ENDCHAR
STARTCHAR 038
ENCODING 38
SWIDTH 2304 0
DWIDTH 32 0
BBX 28 36 2 -3
BITMAP
007F0000
01FFC000
03FFE000
07C1F000
0780F000
0F007800
0F007800
0F007800
0F007800
0F80F800
07C0F000
07C3F000
03E7E000
03FFC000
01FF0000
00FE0000
03FC0000
07FE0000
0FFF0000
3F1F81E0
3E0FC1E0
7C07C1E0
7803E3E0
F003F3C0
F001FFC0
F000FFC0
F0007F80
F0003F80
F8003F00
78003F80
7C007FC0
3F03FFE0
1FFFFBE0
0FFFF3F0
07FFC1C0
01FE0080
ENDCHAR
STARTCHAR 039
ENCODING 39
SWIDTH 648 0
DWIDTH 9 0
BBX 4 12 2 20
BITMAP
F0
F0
F0
F0
F0
F0
F0
F0
F0
60
60
60
ENDCHAR
STARTCHAR 040
ENCODING 40
SWIDTH 1152 0
DWIDTH 16 0
BBX 11 36 3 -3
BITMAP
00E0
01C0
03C0
0380
0780
0700
0F00
0E00
1E00
1C00
3C00
3C00
3800
7800
7800
7800
7800
F000
F000
F000
F000
F000
F000
F000
F000
F000
F000
F000
F000
7800
7800
7800
7800
3800
3C00
3C00
ENDCHAR
STARTCHAR 041
ENCODING 41
SWIDTH 1152 0
DWIDTH 16 0
BBX 11 36 2 -3
BITMAP
E000
7000
7800
3800
3C00
1C00
1E00
0E00
0F00
0700
0780
0780
0380
03C0
03C0
03C0
03C0
01E0
01E0
01E0
01E0
01E0
01E0
01E0
01E0
01E0
01E0
01E0
01E0
03C0
03C0
03C0
03C0
0380
0780
0780
ENDCHAR
STARTCHAR 042
ENCODING 42
SWIDTH 1368 0
DWIDTH 19 0
BBX 16 15 2 18
BITMAP
03C0
03C0
03C0
03C0
63C6
FBDF
FFFF
3FFC
03C0
07E0
0FF0
1E78
3C3C
1C38
0810
ENDCHAR
STARTCHAR 043
ENCODING 43
SWIDTH 2016 0
DWIDTH 28 0
BBX 22 22 3 4
BITMAP
007800
007800
007800
007800
007800
007800
007800
007800
007800
FFFFFC
FFFFFC
FFFFFC
FFFFFC
007800
007800
007800
007800
007800
007800
007800
007800
007800
ENDCHAR
STARTCHAR 044
ENCODING 44
SWIDTH 936 0
DWIDTH 13 0
BBX 4 6 4 -3
BITMAP
F0
F0
F0
F0
F0
30
ENDCHAR
STARTCHAR 045
ENCODING 45
SWIDTH 3744 0
DWIDTH 52 0
BBX 32 6 10 26
BITMAP
3FFFFFFC
7FFFFFFE
FFFFFFFF
FFFFFFFF
7FFFFFFE
3FFFFFFC
ENDCHAR
STARTCHAR 046
ENCODING 46
SWIDTH 0 0
DWIDTH 0 0
BBX 0 0 0 0
BITMAP
ENDCHAR
STARTCHAR 047
ENCODING 47
SWIDTH 936 0
DWIDTH 13 0
BBX 13 34 0 -2
BITMAP
0038
0078
0070
0070
0070
00E0
00E0
00E0
01E0
01C0
01C0
01C0
0380
0380
0380
0700
0700
0700
0700
0E00
0E00
0E00
1C00
1C00
1C00
3C00
3800
3800
3800
7000
7000
7000
F000
E000
ENDCHAR
STARTCHAR 048
ENCODING 48
SWIDTH 3744 0
DWIDTH 52 0
BBX 40 64 6 -3
BITMAP
07FFFFFFF0
0FFFFFFFF8
0FFFFFFFF8
27FFFFFFF6
73FFFFFFEF
F9FFFFFFDF
FC0000003F
FC0000003F
FC0000003F
FC0000003F
FC0000003F
FC0000003F
FC0000003F
FC0000003F
FC0000003F
FC0000003F
FC0000003F
FC0000003F
FC0000003F
FC0000003F
FC0000003F
FC0000003F
FC0000003F
FC0000003F
FC0000003F
FC0000003F
FC0000003F
FC0000003F
F80000001F
F00000000F
E000000007
0000000000
0000000000
E000000007
F00000000F
F80000001F
FC0000003F
FC0000003F
FC0000003F
FC0000003F
FC0000003F
FC0000003F
FC0000003F
FC0000003F
FC0000003F
FC0000003F
FC0000003F
FC0000003F
FC0000003F
FC0000003F
FC0000003F
FC0000003F
FC0000003F
FC0000003F
FC0000003F
FC0000003F
FC0000003F
FC0000003F
F9FFFFFFDF
73FFFFFFEF
27FFFFFFF6
0FFFFFFFF8
0FFFFFFFF8
07FFFFFFF0
ENDCHAR
STARTCHAR 049
ENCODING 49
SWIDTH 3744 0
DWIDTH 52 0
BBX 6 58 40 0
BITMAP
18
3C
7C
FC
FC
FC
FC
FC
FC
FC
FC
FC
FC
FC
FC
FC
FC
FC
FC
FC
FC
FC
FC
FC
FC
7C
3C
1C
00
00
1C
3C
7C
FC
FC
FC
FC
FC
FC
FC
FC
FC
FC
FC
FC
FC
FC
FC
FC
FC
FC
FC
FC
FC
FC
7C
3C
18
ENDCHAR
STARTCHAR 050
ENCODING 50
SWIDTH 3744 0
DWIDTH 52 0
BBX 40 64 6 -3
BITMAP
07FFFFFFF0
0FFFFFFFF8
0FFFFFFFF8
07FFFFFFF6
03FFFFFFEF
01FFFFFFDF
000000003F
000000003F
000000003F
000000003F
000000003F
000000003F
000000003F
000000003F
000000003F
000000003F
000000003F
000000003F
000000003F
000000003F
000000003F
000000003F
000000003F
000000003F
000000003F
000000003F
000000003F
000000003F
000000001F
03FFFFFFCF
07FFFFFFE7
0FFFFFFFF0
0FFFFFFFF0
E7FFFFFFE0
F3FFFFFFC0
F800000000
FC00000000
FC00000000
FC00000000
FC00000000
FC00000000
FC00000000
FC00000000
FC00000000
FC00000000
FC00000000
FC00000000
FC00000000
FC00000000
FC00000000
FC00000000
FC00000000
FC00000000
FC00000000
FC00000000
FC00000000
FC00000000
FC00000000
F9FFFFFFC0
73FFFFFFE0
27FFFFFFF0
0FFFFFFFF8
0FFFFFFFF8
07FFFFFFF0
ENDCHAR
STARTCHAR 051
ENCODING 51
SWIDTH 3744 0
DWIDTH 52 0
BBX 36 64 10 -3
BITMAP
7FFFFFFF00
FFFFFFFF80
FFFFFFFF80
7FFFFFFF60
3FFFFFFEF0
1FFFFFFDF0
00000003F0
00000003F0
00000003F0
00000003F0
00000003F0
00000003F0
00000003F0
00000003F0
00000003F0
00000003F0
00000003F0
00000003F0
00000003F0
00000003F0
00000003F0
00000003F0
00000003F0
00000003F0
00000003F0
00000003F0
00000003F0
00000003F0
00000001F0
3FFFFFFCF0
7FFFFFFE70
FFFFFFFF00
FFFFFFFF00
7FFFFFFE70
3FFFFFFCF0
00000001F0
00000003F0
00000003F0
00000003F0
00000003F0
00000003F0
00000003F0
00000003F0
00000003F0
00000003F0
00000003F0
00000003F0
00000003F0
00000003F0
00000003F0
00000003F0
00000003F0
00000003F0
00000003F0
00000003F0
00000003F0
00000003F0
00000003F0
1FFFFFFDF0
3FFFFFFEF0
7FFFFFFF60
FFFFFFFF80
FFFFFFFF80
7FFFFFFF00
ENDCHAR
STARTCHAR 052
ENCODING 52
SWIDTH 3744 0
DWIDTH 52 0
BBX 40 58 6 0
BITMAP
2000000006
700000000F
F80000001F
FC0000003F
FC0000003F
FC0000003F
FC0000003F
FC0000003F
FC0000003F
FC0000003F
FC0000003F
FC0000003F
FC0000003F
FC0000003F
FC0000003F
FC0000003F
FC0000003F
FC0000003F
FC0000003F
FC0000003F
FC0000003F
FC0000003F
FC0000003F
FC0000003F
FC0000003F
F80000001F
F3FFFFFFCF
E7FFFFFFE7
0FFFFFFFF0
0FFFFFFFF0
07FFFFFFE7
03FFFFFFCF
000000001F
000000003F
000000003F
000000003F
000000003F
000000003F
000000003F
000000003F
000000003F
000000003F
000000003F
000000003F
000000003F
000000003F
000000003F
000000003F
000000003F
000000003F
000000003F
000000003F
000000003F
000000003F
000000003F
000000001F
000000000F
0000000006
ENDCHAR
STARTCHAR 053
ENCODING 53
SWIDTH 3744 0
DWIDTH 52 0
BBX 40 64 6 -3
BITMAP
07FFFFFFF0
0FFFFFFFF8
0FFFFFFFF8
27FFFFFFF0
73FFFFFFE0
F9FFFFFFC0
FC00000000
FC00000000
FC00000000
FC00000000
FC00000000
FC00000000
FC00000000
FC00000000
FC00000000
FC00000000
FC00000000
FC00000000
FC00000000
FC00000000
FC00000000
FC00000000
FC00000000
FC00000000
FC00000000
FC00000000
FC00000000
FC00000000
F800000000
F3FFFFFFC0
E7FFFFFFE0
0FFFFFFFF0
0FFFFFFFF0
07FFFFFFE7
03FFFFFFCF
000000001F
000000003F
000000003F
000000003F
000000003F
000000003F
000000003F
000000003F
000000003F
000000003F
000000003F
000000003F
000000003F
000000003F
000000003F
000000003F
000000003F
000000003F
000000003F
000000003F
000000003F
000000003F
000000003F
01FFFFFFDF
03FFFFFFEF
07FFFFFFF6
0FFFFFFFF8
0FFFFFFFF8
07FFFFFFF0
ENDCHAR
STARTCHAR 054
ENCODING 54
SWIDTH 3744 0
DWIDTH 52 0
BBX 40 64 6 -3
BITMAP
07FFFFFFF0
0FFFFFFFF8
0FFFFFFFF8
27FFFFFFF0
73FFFFFFE0
F9FFFFFFC0
FC00000000
FC00000000
FC00000000
FC00000000
FC00000000
FC00000000
FC00000000
FC00000000
FC00000000
FC00000000
FC00000000
FC00000000
FC00000000
FC00000000
FC00000000
FC00000000
FC00000000
FC00000000
FC00000000
FC00000000
FC00000000
FC00000000
F800000000
F3FFFFFFC0
E7FFFFFFE0
0FFFFFFFF0
0FFFFFFFF0
E7FFFFFFE7
F3FFFFFFCF
F80000001F
FC0000003F
FC0000003F
FC0000003F
FC0000003F
FC0000003F
FC0000003F
FC0000003F
FC0000003F
FC0000003F
FC0000003F
FC0000003F
FC0000003F
FC0000003F
FC0000003F
FC0000003F
FC0000003F
FC0000003F
FC0000003F
FC0000003F
FC0000003F
FC0000003F
FC0000003F
F9FFFFFFDF
73FFFFFFEF
27FFFFFFF6
0FFFFFFFF8
0FFFFFFFF8
07FFFFFFF0
ENDCHAR
STARTCHAR 055
ENCODING 55
SWIDTH 3744 0
DWIDTH 52 0
BBX 40 61 6 0
BITMAP
07FFFFFFF0
0FFFFFFFF8
0FFFFFFFF8
27FFFFFFF6
73FFFFFFEF
F9FFFFFFDF
FC0000003F
FC0000003F
FC0000003F
FC0000003F
FC0000003F
FC0000003F
FC0000003F
FC0000003F
FC0000003F
FC0000003F
FC0000003F
FC0000003F
FC0000003F
FC0000003F
FC0000003F
FC0000003F
FC0000003F
FC0000003F
FC0000003F
FC0000003F
FC0000003F
FC0000003F
F80000001F
F00000000F
E000000007
0000000000
0000000000
0000000007
000000000F
000000001F
000000003F
000000003F
000000003F
000000003F
000000003F
000000003F
000000003F
000000003F
000000003F
000000003F
000000003F
000000003F
000000003F
000000003F
000000003F
000000003F
000000003F
000000003F
000000003F
000000003F
000000003F
000000003F
000000001F
000000000F
0000000006
ENDCHAR
STARTCHAR 056
ENCODING 56
SWIDTH 3744 0
DWIDTH 52 0
BBX 40 64 6 -3
BITMAP
07FFFFFFF0
0FFFFFFFF8
0FFFFFFFF8
27FFFFFFF6
73FFFFFFEF
F9FFFFFFDF
FC0000003F
FC0000003F
FC0000003F
FC0000003F
FC0000003F
FC0000003F
FC0000003F
FC0000003F
FC0000003F
FC0000003F
FC0000003F
FC0000003F
FC0000003F
FC0000003F
FC0000003F
FC0000003F
FC0000003F
FC0000003F
FC0000003F
FC0000003F
FC0000003F
FC0000003F
F80000001F
F3FFFFFFCF
E7FFFFFFE7
0FFFFFFFF0
0FFFFFFFF0
E7FFFFFFE7
F3FFFFFFCF
F80000001F
FC0000003F
FC0000003F
FC0000003F
FC0000003F
FC0000003F
FC0000003F
FC0000003F
FC0000003F
FC0000003F
FC0000003F
FC0000003F
FC0000003F
FC0000003F
FC0000003F
FC0000003F
FC0000003F
FC0000003F
FC0000003F
FC0000003F
FC0000003F
FC0000003F
FC0000003F
F9FFFFFFDF
73FFFFFFEF
27FFFFFFF6
0FFFFFFFF8
0FFFFFFFF8
07FFFFFFF0
ENDCHAR
STARTCHAR 057
ENCODING 57
SWIDTH 3744 0
DWIDTH 52 0
BBX 40 64 6 -3
BITMAP
07FFFFFFF0
0FFFFFFFF8
0FFFFFFFF8
27FFFFFFF6
73FFFFFFEF
F9FFFFFFDF
FC0000003F
FC0000003F
FC0000003F
FC0000003F
FC0000003F
FC0000003F
FC0000003F
FC0000003F
FC0000003F
FC0000003F
FC0000003F
FC0000003F
FC0000003F
FC0000003F
FC0000003F
FC0000003F
FC0000003F
FC0000003F
FC0000003F
FC0000003F
FC0000003F
FC0000003F
F80000001F
F3FFFFFFCF
E7FFFFFFE7
0FFFFFFFF0
0FFFFFFFF0
07FFFFFFE7
03FFFFFFCF
000000001F
000000003F
000000003F
000000003F
000000003F
000000003F
000000003F
000000003F
000000003F
000000003F
000000003F
000000003F
000000003F
000000003F
000000003F
000000003F
000000003F
000000003F
000000003F
000000003F
000000003F
000000003F
000000003F
01FFFFFFDF
03FFFFFFEF
07FFFFFFF6
0FFFFFFFF8
0FFFFFFFF8
07FFFFFFF0
ENDCHAR
STARTCHAR 058
ENCODING 58
SWIDTH 936 0
DWIDTH 13 0
BBX 8 34 2 11
BITMAP
3E
7F
7F
FF
7F
7F
3E
08
00
00
00
00
00
00
00
00
00
00
00
00
00
00
00
00
00
00
1C
7E
7F
FF
FF
7F
7F
1C
ENDCHAR
STARTCHAR 059
ENCODING 59
SWIDTH 936 0
DWIDTH 13 0
BBX 4 26 4 -3
BITMAP
F0
F0
F0
F0
F0
00
00
00
00
00
00
00
00
00
00
00
00
00
00
00
F0
F0
F0
F0
F0
30
ENDCHAR
STARTCHAR 060
ENCODING 60
SWIDTH 2016 0
DWIDTH 28 0
BBX 22 23 3 3
BITMAP
000004
00001C
0000FC
0003FC
000FF8
007FE0
01FF80
07FE00
3FF000
FFC000
FF0000
F80000
FF0000
FFC000
3FF000
07FE00
01FF80
007FE0
000FF8
0003FC
0000FC
00001C
000004
ENDCHAR
STARTCHAR 061
ENCODING 61
SWIDTH 2016 0
DWIDTH 28 0
BBX 22 14 3 8
BITMAP
FFFFFC
FFFFFC
FFFFFC
FFFFFC
000000
000000
000000
000000
000000
000000
FFFFFC
FFFFFC
FFFFFC
FFFFFC
ENDCHAR
STARTCHAR 062
ENCODING 62
SWIDTH 2016 0
DWIDTH 28 0
BBX 22 23 3 3
BITMAP
800000
E00000
FC0000
FF0000
7FC000
1FF800
07FE00
01FF80
003FF0
000FFC
0003FC
00007C
0003FC
000FFC
003FF0
01FF80
07FE00
1FF800
7FC000
FF0000
FC0000
E00000
800000
ENDCHAR
STARTCHAR 063
ENCODING 63
SWIDTH 1944 0
DWIDTH 27 0
BBX 23 35 2 -2
BITMAP
00FF00
07FFC0
0FFFF0
1F81F8
3E007C
7C003C
78003E
F8001E
F0001E
F0001E
00001E
00003E
00003C
00007C
0001F8
0003F0
0007E0
000FC0
001F00
003E00
003C00
007C00
007800
007800
007800
007800
000000
000000
000000
000000
007800
007800
007800
007800
007800
ENDCHAR
STARTCHAR 064
ENCODING 64
SWIDTH 3528 0
DWIDTH 49 0
BBX 43 36 3 -3
BITMAP
00003FF00000
0001FFFF0000
000FFFFFC000
001FC00FF000
007E0001F800
00F800007C00
01F000003E00
03C000001F00
078000000F00
0F0000000780
0F003F800380
1E00FFE783C0
1C01FFF781C0
3C03E07F81C0
3807C03F00E0
780F801F00E0
700F000F00E0
701E000F00E0
703E001E00E0
E03C001E00E0
E03C001E00E0
E07C001E00E0
E078003E00E0
E078003C01C0
E078003C01C0
E078003C01C0
E078007C03C0
E07800780380
E07800F80780
E03C01F80F00
703C03F81E00
701F07F87C00
701FFF7FF800
3807FC3FE000
3801F81F8000
1C0000000000
ENDCHAR
STARTCHAR 065
ENCODING 65
SWIDTH 3744 0
DWIDTH 52 0
BBX 40 61 6 0
BITMAP
07FFFFFFF0
0FFFFFFFF8
0FFFFFFFF8
27FFFFFFF6
73FFFFFFEF
F9FFFFFFDF
FC0000003F
FC0000003F
FC0000003F
FC0000003F
FC0000003F
FC0000003F
FC0000003F
FC0000003F
FC0000003F
FC0000003F
FC0000003F
FC0000003F
FC0000003F
FC0000003F
FC0000003F
FC0000003F
FC0000003F
FC0000003F
FC0000003F
FC0000003F
FC0000003F
FC0000003F
F80000001F
F3FFFFFFCF
E7FFFFFFE7
0FFFFFFFF0
0FFFFFFFF0
E7FFFFFFE7
F3FFFFFFCF
F80000001F
FC0000003F
FC0000003F
FC0000003F
FC0000003F
FC0000003F
FC0000003F
FC0000003F
FC0000003F
FC0000003F
FC0000003F
FC0000003F
FC0000003F
FC0000003F
FC0000003F
FC0000003F
FC0000003F
FC0000003F
FC0000003F
FC0000003F
FC0000003F
FC0000003F
FC0000003F
F80000001F
700000000F
2000000006
ENDCHAR
STARTCHAR 066
ENCODING 66
SWIDTH 3744 0
DWIDTH 52 0
BBX 40 61 6 -3
BITMAP
2000000000
7000000000
F800000000
FC00000000
FC00000000
FC00000000
FC00000000
FC00000000
FC00000000
FC00000000
FC00000000
FC00000000
FC00000000
FC00000000
FC00000000
FC00000000
FC00000000
FC00000000
FC00000000
FC00000000
FC00000000
FC00000000
FC00000000
FC00000000
FC00000000
F800000000
F3FFFFFFC0
E7FFFFFFE0
0FFFFFFFF0
0FFFFFFFF0
E7FFFFFFE7
F3FFFFFFCF
F80000001F
FC0000003F
FC0000003F
FC0000003F
FC0000003F
FC0000003F
FC0000003F
FC0000003F
FC0000003F
FC0000003F
FC0000003F
FC0000003F
FC0000003F
FC0000003F
FC0000003F
FC0000003F
FC0000003F
FC0000003F
FC0000003F
FC0000003F
FC0000003F
FC0000003F
FC0000003F
F9FFFFFFDF
73FFFFFFEF
27FFFFFFF6
0FFFFFFFF8
0FFFFFFFF8
07FFFFFFF0
ENDCHAR
STARTCHAR 067
ENCODING 67
SWIDTH 3744 0
DWIDTH 52 0
BBX 37 35 6 -3
BITMAP
03FFFFFFC0
07FFFFFFE0
0FFFFFFFF0
0FFFFFFFF0
E7FFFFFFE0
F3FFFFFFC0
F800000000
FC00000000
FC00000000
FC00000000
FC00000000
FC00000000
FC00000000
FC00000000
FC00000000
FC00000000
FC00000000
FC00000000
FC00000000
FC00000000
FC00000000
FC00000000
FC00000000
FC00000000
FC00000000
FC00000000
FC00000000
FC00000000
FC00000000
F9FFFFFFC0
73FFFFFFE0
27FFFFFFF0
0FFFFFFFF8
0FFFFFFFF8
07FFFFFFF0
ENDCHAR
STARTCHAR 068
ENCODING 68
SWIDTH 3744 0
DWIDTH 52 0
BBX 40 61 6 -3
BITMAP
0000000006
000000000F
000000001F
000000003F
000000003F
000000003F
000000003F
000000003F
000000003F
000000003F
000000003F
000000003F
000000003F
000000003F
000000003F
000000003F
000000003F
000000003F
000000003F
000000003F
000000003F
000000003F
000000003F
000000003F
000000003F
000000001F
03FFFFFFCF
07FFFFFFE7
0FFFFFFFF0
0FFFFFFFF0
E7FFFFFFE7
F3FFFFFFCF
F80000001F
FC0000003F
FC0000003F
FC0000003F
FC0000003F
FC0000003F
FC0000003F
FC0000003F
FC0000003F
FC0000003F
FC0000003F
FC0000003F
FC0000003F
FC0000003F
FC0000003F
FC0000003F
FC0000003F
FC0000003F
FC0000003F
FC0000003F
FC0000003F
FC0000003F
FC0000003F
F9FFFFFFDF
73FFFFFFEF
27FFFFFFF6
0FFFFFFFF8
0FFFFFFFF8
07FFFFFFF0
ENDCHAR
STARTCHAR 069
ENCODING 69
SWIDTH 3744 0
DWIDTH 52 0
BBX 37 64 6 -3
BITMAP
07FFFFFFF0
0FFFFFFFF8
0FFFFFFFF8
27FFFFFFF0
73FFFFFFE0
F9FFFFFFC0
FC00000000
FC00000000
FC00000000
FC00000000
FC00000000
FC00000000
FC00000000
FC00000000
FC00000000
FC00000000
FC00000000
FC00000000
FC00000000
FC00000000
FC00000000
FC00000000
FC00000000
FC00000000
FC00000000
FC00000000
FC00000000
FC00000000
F800000000
F3FFFFFFC0
E7FFFFFFE0
0FFFFFFFF0
0FFFFFFFF0
E7FFFFFFE0
F3FFFFFFC0
F800000000
FC00000000
FC00000000
FC00000000
FC00000000
FC00000000
FC00000000
FC00000000
FC00000000
FC00000000
FC00000000
FC00000000
FC00000000
FC00000000
FC00000000
FC00000000
FC00000000
FC00000000
FC00000000
FC00000000
FC00000000
FC00000000
FC00000000
F9FFFFFFC0
73FFFFFFE0
27FFFFFFF0
0FFFFFFFF8
0FFFFFFFF8
07FFFFFFF0
ENDCHAR
STARTCHAR 070
ENCODING 70
SWIDTH 3744 0
DWIDTH 52 0
BBX 37 61 6 0
BITMAP
07FFFFFFF0
0FFFFFFFF8
0FFFFFFFF8
27FFFFFFF0
73FFFFFFE0
F9FFFFFFC0
FC00000000
FC00000000
FC00000000
FC00000000
FC00000000
FC00000000
FC00000000
FC00000000
FC00000000
FC00000000
FC00000000
FC00000000
FC00000000
FC00000000
FC00000000
FC00000000
FC00000000
FC00000000
FC00000000
FC00000000
FC00000000
FC00000000
F800000000
F3FFFFFFC0
E7FFFFFFE0
0FFFFFFFF0
0FFFFFFFF0
E7FFFFFFE0
F3FFFFFFC0
F800000000
FC00000000
FC00000000
FC00000000
FC00000000
FC00000000
FC00000000
FC00000000
FC00000000
FC00000000
FC00000000
FC00000000
FC00000000
FC00000000
FC00000000
FC00000000
FC00000000
FC00000000
FC00000000
FC00000000
FC00000000
FC00000000
FC00000000
F800000000
7000000000
2000000000
ENDCHAR
STARTCHAR 071
ENCODING 71
SWIDTH 3744 0
DWIDTH 52 0
BBX 40 64 6 -3
BITMAP
07FFFFFFF0
0FFFFFFFF8
0FFFFFFFF8
27FFFFFFF0
73FFFFFFE0
F9FFFFFFC0
FC00000000
FC00000000
FC00000000
FC00000000
FC00000000
FC00000000
FC00000000
FC00000000
FC00000000
FC00000000
FC00000000
FC00000000
FC00000000
FC00000000
FC00000000
FC00000000
FC00000000
FC00000000
FC00000000
FC00000000
FC00000000
FC00000000
F800000000
F000000000
E000000000
0000000000
0000000000
E000000007
F00000000F
F80000001F
FC0000003F
FC0000003F
FC0000003F
FC0000003F
FC0000003F
FC0000003F
FC0000003F
FC0000003F
FC0000003F
FC0000003F
FC0000003F
FC0000003F
FC0000003F
FC0000003F
FC0000003F
FC0000003F
FC0000003F
FC0000003F
FC0000003F
FC0000003F
FC0000003F
FC0000003F
F9FFFFFFDF
73FFFFFFEF
27FFFFFFF6
0FFFFFFFF8
0FFFFFFFF8
07FFFFFFF0
ENDCHAR
STARTCHAR 072
ENCODING 72
SWIDTH 3744 0
DWIDTH 52 0
BBX 40 58 6 0
BITMAP
2000000000
7000000000
F800000000
FC00000000
FC00000000
FC00000000
FC00000000
FC00000000
FC00000000
FC00000000
FC00000000
FC00000000
FC00000000
FC00000000
FC00000000
FC00000000
FC00000000
FC00000000
FC00000000
FC00000000
FC00000000
FC00000000
FC00000000
FC00000000
FC00000000
F800000000
F3FFFFFFC0
E7FFFFFFE0
0FFFFFFFF0
0FFFFFFFF0
E7FFFFFFE7
F3FFFFFFCF
F80000001F
FC0000003F
FC0000003F
FC0000003F
FC0000003F
FC0000003F
FC0000003F
FC0000003F
FC0000003F
FC0000003F
FC0000003F
FC0000003F
FC0000003F
FC0000003F
FC0000003F
FC0000003F
FC0000003F
FC0000003F
FC0000003F
FC0000003F
FC0000003F
FC0000003F
FC0000003F
F80000001F
700000000F
2000000006
ENDCHAR
STARTCHAR 073
ENCODING 73
SWIDTH 3744 0
DWIDTH 52 0
BBX 6 28 40 0
BITMAP
1C
3C
7C
FC
FC
FC
FC
FC
FC
FC
FC
FC
FC
FC
FC
FC
FC
FC
FC
FC
FC
FC
FC
FC
FC
7C
3C
18
ENDCHAR
STARTCHAR 074
ENCODING 74
SWIDTH 3744 0
DWIDTH 52 0
BBX 40 61 6 -3
BITMAP
0000000006
000000000F
000000001F
000000003F
000000003F
000000003F
000000003F
000000003F
000000003F
000000003F
000000003F
000000003F
000000003F
000000003F
000000003F
000000003F
000000003F
000000003F
000000003F
000000003F
000000003F
000000003F
000000003F
000000003F
000000003F
000000001F
000000000F
0000000007
0000000000
0000000000
E000000007
F00000000F
F80000001F
FC0000003F
FC0000003F
FC0000003F
FC0000003F
FC0000003F
FC0000003F
FC0000003F
FC0000003F
FC0000003F
FC0000003F
FC0000003F
FC0000003F
FC0000003F
FC0000003F
FC0000003F
FC0000003F
FC0000003F
FC0000003F
FC0000003F
FC0000003F
FC0000003F
FC0000003F
F9FFFFFFDF
73FFFFFFEF
27FFFFFFF6
0FFFFFFFF8
0FFFFFFFF8
07FFFFFFF0
ENDCHAR
STARTCHAR 075
ENCODING 75
SWIDTH 3744 0
DWIDTH 52 0
BBX 40 61 6 0
BITMAP
07FFFFFFF0
0FFFFFFFF8
0FFFFFFFF8
27FFFFFFF0
73FFFFFFE0
F9FFFFFFC0
FC00000000
FC00000000
FC00000000
FC00000000
FC00000000
FC00000000
FC00000000
FC00000000
FC00000000
FC00000000
FC00000000
FC00000000
FC00000000
FC00000000
FC00000000
FC00000000
FC00000000
FC00000000
FC00000000
FC00000000
FC00000000
FC00000000
F800000000
F3FFFFFFC0
E7FFFFFFE0
0FFFFFFFF0
0FFFFFFFF0
E7FFFFFFE7
F3FFFFFFCF
F80000001F
FC0000003F
FC0000003F
FC0000003F
FC0000003F
FC0000003F
FC0000003F
FC0000003F
FC0000003F
FC0000003F
FC0000003F
FC0000003F
FC0000003F
FC0000003F
FC0000003F
FC0000003F
FC0000003F
FC0000003F
FC0000003F
FC0000003F
FC0000003F
FC0000003F
FC0000003F
F80000001F
700000000F
2000000006
ENDCHAR
STARTCHAR 076
ENCODING 76
SWIDTH 3744 0
DWIDTH 52 0
BBX 37 61 6 -3
BITMAP
2000000000
7000000000
F800000000
FC00000000
FC00000000
FC00000000
FC00000000
FC00000000
FC00000000
FC00000000
FC00000000
FC00000000
FC00000000
FC00000000
FC00000000
FC00000000
FC00000000
FC00000000
FC00000000
FC00000000
FC00000000
FC00000000
FC00000000
FC00000000
FC00000000
F800000000
F000000000
E000000000
0000000000
0000000000
E000000000
F000000000
F800000000
FC00000000
FC00000000
FC00000000
FC00000000
FC00000000
FC00000000
FC00000000
FC00000000
FC00000000
FC00000000
FC00000000
FC00000000
FC00000000
FC00000000
FC00000000
FC00000000
FC00000000
FC00000000
FC00000000
FC00000000
FC00000000
FC00000000
F9FFFFFFC0
73FFFFFFE0
27FFFFFFF0
0FFFFFFFF8
0FFFFFFFF8
07FFFFFFF0
ENDCHAR
STARTCHAR 077
ENCODING 77
SWIDTH 3744 0
DWIDTH 52 0
BBX 40 61 6 0
BITMAP
07FFFFFFF0
0FFFFFFFF8
0FFFFFFFF8
27FFFFFFF6
73FFFFFFEF
F9FFFFFFDF
FC0000003F
FC0000003F
FC0000003F
FC0000003F
FC0000003F
FC0000003F
FC0000003F
FC0000003F
FC0000003F
FC0000003F
FC0000003F
FC0000003F
FC0000003F
FC0000003F
FC0000003F
FC0000003F
FC0000003F
FC0000003F
FC0000003F
FC0000003F
FC0000003F
FC0000003F
F80000001F
F00000000F
E000000007
0000000000
0000000000
E000000007
F00000000F
F80000001F
FC0000003F
FC0000003F
FC0000003F
FC0000003F
FC0000003F
FC0000003F
FC0000003F
FC0000003F
FC0000003F
FC0000003F
FC0000003F
FC0000003F
FC0000003F
FC0000003F
FC0000003F
FC0000003F
FC0000003F
FC0000003F
FC0000003F
FC0000003F
FC0000003F
FC0000003F
F80000001F
700000000F
2000000006
ENDCHAR
STARTCHAR 078
ENCODING 78
SWIDTH 3744 0
DWIDTH 52 0
BBX 40 32 6 0
BITMAP
03FFFFFFC0
07FFFFFFE0
0FFFFFFFF0
0FFFFFFFF0
E7FFFFFFE7
F3FFFFFFCF
F80000001F
FC0000003F
FC0000003F
FC0000003F
FC0000003F
FC0000003F
FC0000003F
FC0000003F
FC0000003F
FC0000003F
FC0000003F
FC0000003F
FC0000003F
FC0000003F
FC0000003F
FC0000003F
FC0000003F
FC0000003F
FC0000003F
FC0000003F
FC0000003F
FC0000003F
FC0000003F
F80000001F
700000000F
2000000006
ENDCHAR
STARTCHAR 079
ENCODING 79
SWIDTH 3744 0
DWIDTH 52 0
BBX 40 35 6 -3
BITMAP
03FFFFFFC0
07FFFFFFE0
0FFFFFFFF0
0FFFFFFFF0
E7FFFFFFE7
F3FFFFFFCF
F80000001F
FC0000003F
FC0000003F
FC0000003F
FC0000003F
FC0000003F
FC0000003F
FC0000003F
FC0000003F
FC0000003F
FC0000003F
FC0000003F
FC0000003F
FC0000003F
FC0000003F
FC0000003F
FC0000003F
FC0000003F
FC0000003F
FC0000003F
FC0000003F
FC0000003F
FC0000003F
F9FFFFFFDF
73FFFFFFEF
27FFFFFFF6
0FFFFFFFF8
0FFFFFFFF8
07FFFFFFF0
ENDCHAR
STARTCHAR 080
ENCODING 80
SWIDTH 3744 0
DWIDTH 52 0
BBX 40 61 6 0
BITMAP
07FFFFFFF0
0FFFFFFFF8
0FFFFFFFF8
27FFFFFFF6
73FFFFFFEF
F9FFFFFFDF
FC0000003F
FC0000003F
FC0000003F
FC0000003F
FC0000003F
FC0000003F
FC0000003F
FC0000003F
FC0000003F
FC0000003F
FC0000003F
FC0000003F
FC0000003F
FC0000003F
FC0000003F
FC0000003F
FC0000003F
FC0000003F
FC0000003F
FC0000003F
FC0000003F
FC0000003F
F80000001F
F3FFFFFFCF
E7FFFFFFE7
0FFFFFFFF0
0FFFFFFFF0
E7FFFFFFE0
F3FFFFFFC0
F800000000
FC00000000
FC00000000
FC00000000
FC00000000
FC00000000
FC00000000
FC00000000
FC00000000
FC00000000
FC00000000
FC00000000
FC00000000
FC00000000
FC00000000
FC00000000
FC00000000
FC00000000
FC00000000
FC00000000
FC00000000
FC00000000
FC00000000
F800000000
7000000000
2000000000
ENDCHAR
STARTCHAR 081
ENCODING 81
SWIDTH 3744 0
DWIDTH 52 0
BBX 40 61 6 0
BITMAP
07FFFFFFF0
0FFFFFFFF8
0FFFFFFFF8
27FFFFFFF6
73FFFFFFEF
F9FFFFFFDF
FC0000003F
FC0000003F
FC0000003F
FC0000003F
FC0000003F
FC0000003F
FC0000003F
FC0000003F
FC0000003F
FC0000003F
FC0000003F
FC0000003F
FC0000003F
FC0000003F
FC0000003F
FC0000003F
FC0000003F
FC0000003F
FC0000003F
FC0000003F
FC0000003F
FC0000003F
F80000001F
F3FFFFFFCF
E7FFFFFFE7
0FFFFFFFF0
0FFFFFFFF0
07FFFFFFE7
03FFFFFFCF
000000001F
000000003F
000000003F
000000003F
000000003F
000000003F
000000003F
000000003F
000000003F
000000003F
000000003F
000000003F
000000003F
000000003F
000000003F
000000003F
000000003F
000000003F
000000003F
000000003F
000000003F
000000003F
000000003F
000000001F
000000000F
0000000006
ENDCHAR
STARTCHAR 082
ENCODING 82
SWIDTH 3744 0
DWIDTH 52 0
BBX 36 32 6 0
BITMAP
03FFFFFFC0
07FFFFFFE0
0FFFFFFFF0
0FFFFFFFF0
E7FFFFFFE0
F3FFFFFFC0
F800000000
FC00000000
FC00000000
FC00000000
FC00000000
FC00000000
FC00000000
FC00000000
FC00000000
FC00000000
FC00000000
FC00000000
FC00000000
FC00000000
FC00000000
FC00000000
FC00000000
FC00000000
FC00000000
FC00000000
FC00000000
FC00000000
FC00000000
F800000000
7000000000
2000000000
ENDCHAR
STARTCHAR 083
ENCODING 83
SWIDTH 3744 0
DWIDTH 52 0
BBX 40 61 6 -3
BITMAP
2000000000
7000000000
F800000000
FC00000000
FC00000000
FC00000000
FC00000000
FC00000000
FC00000000
FC00000000
FC00000000
FC00000000
FC00000000
FC00000000
FC00000000
FC00000000
FC00000000
FC00000000
FC00000000
FC00000000
FC00000000
FC00000000
FC00000000
FC00000000
FC00000000
F800000000
F3FFFFFFC0
E7FFFFFFE0
0FFFFFFFF0
0FFFFFFFF0
07FFFFFFE7
03FFFFFFCF
000000001F
000000003F
000000003F
000000003F
000000003F
000000003F
000000003F
000000003F
000000003F
000000003F
000000003F
000000003F
000000003F
000000003F
000000003F
000000003F
000000003F
000000003F
000000003F
000000003F
000000003F
000000003F
000000003F
01FFFFFFDF
03FFFFFFEF
07FFFFFFF6
0FFFFFFFF8
0FFFFFFFF8
07FFFFFFF0
ENDCHAR
STARTCHAR 084
ENCODING 84
SWIDTH 3744 0
DWIDTH 52 0
BBX 37 61 6 -3
BITMAP
2000000000
7000000000
F800000000
FC00000000
FC00000000
FC00000000
FC00000000
FC00000000
FC00000000
FC00000000
FC00000000
FC00000000
FC00000000
FC00000000
FC00000000
FC00000000
FC00000000
FC00000000
FC00000000
FC00000000
FC00000000
FC00000000
FC00000000
FC00000000
FC00000000
F800000000
F3FFFFFFC0
E7FFFFFFE0
0FFFFFFFF0
0FFFFFFFF0
E7FFFFFFE0
F3FFFFFFC0
F800000000
FC00000000
FC00000000
FC00000000
FC00000000
FC00000000
FC00000000
FC00000000
FC00000000
FC00000000
FC00000000
FC00000000
FC00000000
FC00000000
FC00000000
FC00000000
FC00000000
FC00000000
FC00000000
FC00000000
FC00000000
FC00000000
FC00000000
F9FFFFFFC0
73FFFFFFE0
27FFFFFFF0
0FFFFFFFF8
0FFFFFFFF8
07FFFFFFF0
ENDCHAR
STARTCHAR 085
ENCODING 85
SWIDTH 3744 0
DWIDTH 52 0
BBX 40 31 6 -3
BITMAP
E000000007
F00000000F
F80000001F
FC0000003F
FC0000003F
FC0000003F
FC0000003F
FC0000003F
FC0000003F
FC0000003F
FC0000003F
FC0000003F
FC0000003F
FC0000003F
FC0000003F
FC0000003F
FC0000003F
FC0000003F
FC0000003F
FC0000003F
FC0000003F
FC0000003F
FC0000003F
FC0000003F
FC0000003F
F9FFFFFFDF
73FFFFFFEF
27FFFFFFF6
0FFFFFFFF8
0FFFFFFFF8
07FFFFFFF0
ENDCHAR
STARTCHAR 086
ENCODING 86
SWIDTH 3744 0
DWIDTH 52 0
BBX 40 61 6 -3
BITMAP
2000000006
700000000F
F80000001F
FC0000003F
FC0000003F
FC0000003F
FC0000003F
FC0000003F
FC0000003F
FC0000003F
FC0000003F
FC0000003F
FC0000003F
FC0000003F
FC0000003F
FC0000003F
FC0000003F
FC0000003F
FC0000003F
FC0000003F
FC0000003F
FC0000003F
FC0000003F
FC0000003F
FC0000003F
F80000001F
F00000000F
E000000007
0000000000
0000000000
E000000007
F00000000F
F80000001F
FC0000003F
FC0000003F
FC0000003F
FC0000003F
FC0000003F
FC0000003F
FC0000003F
FC0000003F
FC0000003F
FC0000003F
FC0000003F
FC0000003F
FC0000003F
FC0000003F
FC0000003F
FC0000003F
FC0000003F
FC0000003F
FC0000003F
FC0000003F
FC0000003F
FC0000003F
F9FFFFFFDF
73FFFFFFEF
27FFFFFFF6
0FFFFFFFF8
0FFFFFFFF8
07FFFFFFF0
ENDCHAR
STARTCHAR 087
ENCODING 87
SWIDTH 3744 0
DWIDTH 52 0
BBX 40 61 6 -3
BITMAP
2000000006
700000000F
F80000001F
FC0000003F
FC0000003F
FC0000003F
FC0000003F
FC0000003F
FC0000003F
FC0000003F
FC0000003F
FC0000003F
FC0000003F
FC0000003F
FC0000003F
FC0000003F
FC0000003F
FC0000003F
FC0000003F
FC0000003F
FC0000003F
FC0000003F
FC0000003F
FC0000003F
FC0000003F
F80000001F
F3FFFFFFCF
E7FFFFFFE7
0FFFFFFFF0
0FFFFFFFF0
E7FFFFFFE7
F3FFFFFFCF
F80000001F
FC0000003F
FC0000003F
FC0000003F
FC0000003F
FC0000003F
FC0000003F
FC0000003F
FC0000003F
FC0000003F
FC0000003F
FC0000003F
FC0000003F
FC0000003F
FC0000003F
FC0000003F
FC0000003F
FC0000003F
FC0000003F
FC0000003F
FC0000003F
FC0000003F
FC0000003F
F9FFFFFFDF
73FFFFFFEF
27FFFFFFF6
0FFFFFFFF8
0FFFFFFFF8
07FFFFFFF0
ENDCHAR
STARTCHAR 088
ENCODING 88
SWIDTH 3744 0
DWIDTH 52 0
BBX 40 58 6 0
BITMAP
2000000006
700000000F
F80000001F
FC0000003F
FC0000003F
FC0000003F
FC0000003F
FC0000003F
FC0000003F
FC0000003F
FC0000003F
FC0000003F
FC0000003F
FC0000003F
FC0000003F
FC0000003F
FC0000003F
FC0000003F
FC0000003F
FC0000003F
FC0000003F
FC0000003F
FC0000003F
FC0000003F
FC0000003F
F80000001F
F3FFFFFFCF
E7FFFFFFE7
0FFFFFFFF0
0FFFFFFFF0
E7FFFFFFE7
F3FFFFFFCF
F80000001F
FC0000003F
FC0000003F
FC0000003F
FC0000003F
FC0000003F
FC0000003F
FC0000003F
FC0000003F
FC0000003F
FC0000003F
FC0000003F
FC0000003F
FC0000003F
FC0000003F
FC0000003F
FC0000003F
FC0000003F
FC0000003F
FC0000003F
FC0000003F
FC0000003F
FC0000003F
F80000001F
700000000F
2000000006
ENDCHAR
STARTCHAR 089
ENCODING 89
SWIDTH 3744 0
DWIDTH 52 0
BBX 40 61 6 -3
BITMAP
2000000006
700000000F
F80000001F
FC0000003F
FC0000003F
FC0000003F
FC0000003F
FC0000003F
FC0000003F
FC0000003F
FC0000003F
FC0000003F
FC0000003F
FC0000003F
FC0000003F
FC0000003F
FC0000003F
FC0000003F
FC0000003F
FC0000003F
FC0000003F
FC0000003F
FC0000003F
FC0000003F
FC0000003F
F80000001F
F3FFFFFFCF
E7FFFFFFE7
0FFFFFFFF0
0FFFFFFFF0
07FFFFFFE7
03FFFFFFCF
000000001F
000000003F
000000003F
000000003F
000000003F
000000003F
000000003F
000000003F
000000003F
000000003F
000000003F
000000003F
000000003F
000000003F
000000003F
000000003F
000000003F
000000003F
000000003F
000000003F
000000003F
000000003F
000000003F
01FFFFFFDF
03FFFFFFEF
07FFFFFFF6
0FFFFFFFF8
0FFFFFFFF8
07FFFFFFF0
ENDCHAR
STARTCHAR 090
ENCODING 90
SWIDTH 3744 0
DWIDTH 52 0
BBX 40 64 6 -3
BITMAP
07FFFFFFF0
0FFFFFFFF8
0FFFFFFFF8
07FFFFFFF6
03FFFFFFEF
01FFFFFFDF
000000003F
000000003F
000000003F
000000003F
000000003F
000000003F
000000003F
000000003F
000000003F
000000003F
000000003F
000000003F
000000003F
000000003F
000000003F
000000003F
000000003F
000000003F
000000003F
000000003F
000000003F
000000003F
000000001F
000000000F
0000000007
0000000000
0000000000
E000000000
F000000000
F800000000
FC00000000
FC00000000
FC00000000
FC00000000
FC00000000
FC00000000
FC00000000
FC00000000
FC00000000
FC00000000
FC00000000
FC00000000
FC00000000
FC00000000
FC00000000
FC00000000
FC00000000
FC00000000
FC00000000
FC00000000
FC00000000
FC00000000
F9FFFFFFC0
73FFFFFFE0
27FFFFFFF0
0FFFFFFFF8
0FFFFFFFF8
07FFFFFFF0
ENDCHAR
STARTCHAR 091
ENCODING 91
SWIDTH 936 0
DWIDTH 13 0
BBX 9 35 3 -3
BITMAP
FF80
FF80
FF80
F000
F000
F000
F000
F000
F000
F000
F000
F000
F000
F000
F000
F000
F000
F000
F000
F000
F000
F000
F000
F000
F000
F000
F000
F000
F000
F000
F000
F000
F000
F000
F000
ENDCHAR
STARTCHAR 092
ENCODING 92
SWIDTH 936 0
DWIDTH 13 0
BBX 13 34 0 -2
BITMAP
E000
F000
7000
7000
7000
3800
3800
3800
3C00
1C00
1C00
1C00
0E00
0E00
0E00
0700
0700
0700
0700
0380
0380
0380
01C0
01C0
01C0
01E0
00E0
00E0
00E0
0070
0070
0070
0078
0038
ENDCHAR
STARTCHAR 093
ENCODING 93
SWIDTH 936 0
DWIDTH 13 0
BBX 9 35 1 -3
BITMAP
FF80
FF80
FF80
0780
0780
0780
0780
0780
0780
0780
0780
0780
0780
0780
0780
0780
0780
0780
0780
0780
0780
0780
0780
0780
0780
0780
0780
0780
0780
0780
0780
0780
0780
0780
0780
ENDCHAR
STARTCHAR 094
ENCODING 94
SWIDTH 1656 0
DWIDTH 23 0
BBX 19 14 2 18
BITMAP
00E000
01F000
03F800
03F800
07FC00
07BC00
0FBE00
0F1E00
1E0F00
1E0F00
3C0780
7C07C0
7803C0
F803E0
ENDCHAR
STARTCHAR 095
ENCODING 95
SWIDTH 3744 0
DWIDTH 52 0
BBX 33 6 10 -3
BITMAP
1FFFFFFC00
3FFFFFFE00
7FFFFFFF00
FFFFFFFF80
FFFFFFFF80
7FFFFFFF00
ENDCHAR
STARTCHAR 096
ENCODING 96
SWIDTH 1152 0
DWIDTH 16 0
BBX 9 7 2 26
BITMAP
FC00
7C00
3E00
1E00
1F00
0F00
0780
ENDCHAR
STARTCHAR 097
ENCODING 97
SWIDTH 3744 0
DWIDTH 52 0
BBX 40 61 6 0
BITMAP
07FFFFFFF0
0FFFFFFFF8
0FFFFFFFF8
27FFFFFFF6
73FFFFFFEF
F9FFFFFFDF
FC0000003F
FC0000003F
FC0000003F
FC0000003F
FC0000003F
FC0000003F
FC0000003F
FC0000003F
FC0000003F
FC0000003F
FC0000003F
FC0000003F
FC0000003F
FC0000003F
FC0000003F
FC0000003F
FC0000003F
FC0000003F
FC0000003F
FC0000003F
FC0000003F
FC0000003F
F80000001F
F3FFFFFFCF
E7FFFFFFE7
0FFFFFFFF0
0FFFFFFFF0
E7FFFFFFE7
F3FFFFFFCF
F80000001F
FC0000003F
FC0000003F
FC0000003F
FC0000003F
FC0000003F
FC0000003F
FC0000003F
FC0000003F
FC0000003F
FC0000003F
FC0000003F
FC0000003F
FC0000003F
FC0000003F
FC0000003F
FC0000003F
FC0000003F
FC0000003F
FC0000003F
FC0000003F
FC0000003F
FC0000003F
F80000001F
700000000F
2000000006
ENDCHAR
STARTCHAR 098
ENCODING 98
SWIDTH 3744 0
DWIDTH 52 0
BBX 40 61 6 -3
BITMAP
2000000000
7000000000
F800000000
FC00000000
FC00000000
FC00000000
FC00000000
FC00000000
FC00000000
FC00000000
FC00000000
FC00000000
FC00000000
FC00000000
FC00000000
FC00000000
FC00000000
FC00000000
FC00000000
FC00000000
FC00000000
FC00000000
FC00000000
FC00000000
FC00000000
F800000000
F3FFFFFFC0
E7FFFFFFE0
0FFFFFFFF0
0FFFFFFFF0
E7FFFFFFE7
F3FFFFFFCF
F80000001F
FC0000003F
FC0000003F
FC0000003F
FC0000003F
FC0000003F
FC0000003F
FC0000003F
FC0000003F
FC0000003F
FC0000003F
FC0000003F
FC0000003F
FC0000003F
FC0000003F
FC0000003F
FC0000003F
FC0000003F
FC0000003F
FC0000003F
FC0000003F
FC0000003F
FC0000003F
F9FFFFFFDF
73FFFFFFEF
27FFFFFFF6
0FFFFFFFF8
0FFFFFFFF8
07FFFFFFF0
ENDCHAR
STARTCHAR 099
ENCODING 99
SWIDTH 3744 0
DWIDTH 52 0
BBX 37 35 6 -3
BITMAP
03FFFFFFC0
07FFFFFFE0
0FFFFFFFF0
0FFFFFFFF0
E7FFFFFFE0
F3FFFFFFC0
F800000000
FC00000000
FC00000000
FC00000000
FC00000000
FC00000000
FC00000000
FC00000000
FC00000000
FC00000000
FC00000000
FC00000000
FC00000000
FC00000000
FC00000000
FC00000000
FC00000000
FC00000000
FC00000000
FC00000000
FC00000000
FC00000000
FC00000000
F9FFFFFFC0
73FFFFFFE0
27FFFFFFF0
0FFFFFFFF8
0FFFFFFFF8
07FFFFFFF0
ENDCHAR
STARTCHAR 100
ENCODING 100
SWIDTH 3744 0
DWIDTH 52 0
BBX 40 61 6 -3
BITMAP
0000000006
000000000F
000000001F
000000003F
000000003F
000000003F
000000003F
000000003F
000000003F
000000003F
000000003F
000000003F
000000003F
000000003F
000000003F
000000003F
000000003F
000000003F
000000003F
000000003F
000000003F
000000003F
000000003F
000000003F
000000003F
000000001F
03FFFFFFCF
07FFFFFFE7
0FFFFFFFF0
0FFFFFFFF0
E7FFFFFFE7
F3FFFFFFCF
F80000001F
FC0000003F
FC0000003F
FC0000003F
FC0000003F
FC0000003F
FC0000003F
FC0000003F
FC0000003F
FC0000003F
FC0000003F
FC0000003F
FC0000003F
FC0000003F
FC0000003F
FC0000003F
FC0000003F
FC0000003F
FC0000003F
FC0000003F
FC0000003F
FC0000003F
FC0000003F
F9FFFFFFDF
73FFFFFFEF
27FFFFFFF6
0FFFFFFFF8
0FFFFFFFF8
07FFFFFFF0
ENDCHAR
STARTCHAR 101
ENCODING 101
SWIDTH 3744 0
DWIDTH 52 0
BBX 37 64 6 -3
BITMAP
07FFFFFFF0
0FFFFFFFF8
0FFFFFFFF8
27FFFFFFF0
73FFFFFFE0
F9FFFFFFC0
FC00000000
FC00000000
FC00000000
FC00000000
FC00000000
FC00000000
FC00000000
FC00000000
FC00000000
FC00000000
FC00000000
FC00000000
FC00000000
FC00000000
FC00000000
FC00000000
FC00000000
FC00000000
FC00000000
FC00000000
FC00000000
FC00000000
F800000000
F3FFFFFFC0
E7FFFFFFE0
0FFFFFFFF0
0FFFFFFFF0
E7FFFFFFE0
F3FFFFFFC0
F800000000
FC00000000
FC00000000
FC00000000
FC00000000
FC00000000
FC00000000
FC00000000
FC00000000
FC00000000
FC00000000
FC00000000
FC00000000
FC00000000
FC00000000
FC00000000
FC00000000
FC00000000
FC00000000
FC00000000
FC00000000
FC00000000
FC00000000
F9FFFFFFC0
73FFFFFFE0
27FFFFFFF0
0FFFFFFFF8
0FFFFFFFF8
07FFFFFFF0
ENDCHAR
STARTCHAR 102
ENCODING 102
SWIDTH 3744 0
DWIDTH 52 0
BBX 37 61 6 0
BITMAP
07FFFFFFF0
0FFFFFFFF8
0FFFFFFFF8
27FFFFFFF0
73FFFFFFE0
F9FFFFFFC0
FC00000000
FC00000000
FC00000000
FC00000000
FC00000000
FC00000000
FC00000000
FC00000000
FC00000000
FC00000000
FC00000000
FC00000000
FC00000000
FC00000000
FC00000000
FC00000000
FC00000000
FC00000000
FC00000000
FC00000000
FC00000000
FC00000000
F800000000
F3FFFFFFC0
E7FFFFFFE0
0FFFFFFFF0
0FFFFFFFF0
E7FFFFFFE0
F3FFFFFFC0
F800000000
FC00000000
FC00000000
FC00000000
FC00000000
FC00000000
FC00000000
FC00000000
FC00000000
FC00000000
FC00000000
FC00000000
FC00000000
FC00000000
FC00000000
FC00000000
FC00000000
FC00000000
FC00000000
FC00000000
FC00000000
FC00000000
FC00000000
F800000000
7000000000
2000000000
ENDCHAR
STARTCHAR 103
ENCODING 103
SWIDTH 3744 0
DWIDTH 52 0
BBX 40 64 6 -3
BITMAP
07FFFFFFF0
0FFFFFFFF8
0FFFFFFFF8
27FFFFFFF0
73FFFFFFE0
F9FFFFFFC0
FC00000000
FC00000000
FC00000000
FC00000000
FC00000000
FC00000000
FC00000000
FC00000000
FC00000000
FC00000000
FC00000000
FC00000000
FC00000000
FC00000000
FC00000000
FC00000000
FC00000000
FC00000000
FC00000000
FC00000000
FC00000000
FC00000000
F800000000
F000000000
E000000000
0000000000
0000000000
E000000007
F00000000F
F80000001F
FC0000003F
FC0000003F
FC0000003F
FC0000003F
FC0000003F
FC0000003F
FC0000003F
FC0000003F
FC0000003F
FC0000003F
FC0000003F
FC0000003F
FC0000003F
FC0000003F
FC0000003F
FC0000003F
FC0000003F
FC0000003F
FC0000003F
FC0000003F
FC0000003F
FC0000003F
F9FFFFFFDF
73FFFFFFEF
27FFFFFFF6
0FFFFFFFF8
0FFFFFFFF8
07FFFFFFF0
ENDCHAR
STARTCHAR 104
ENCODING 104
SWIDTH 3744 0
DWIDTH 52 0
BBX 40 58 6 0
BITMAP
2000000000
7000000000
F800000000
FC00000000
FC00000000
FC00000000
FC00000000
FC00000000
FC00000000
FC00000000
FC00000000
FC00000000
FC00000000
FC00000000
FC00000000
FC00000000
FC00000000
FC00000000
FC00000000
FC00000000
FC00000000
FC00000000
FC00000000
FC00000000
FC00000000
F800000000
F3FFFFFFC0
E7FFFFFFE0
0FFFFFFFF0
0FFFFFFFF0
E7FFFFFFE7
F3FFFFFFCF
F80000001F
FC0000003F
FC0000003F
FC0000003F
FC0000003F
FC0000003F
FC0000003F
FC0000003F
FC0000003F
FC0000003F
FC0000003F
FC0000003F
FC0000003F
FC0000003F
FC0000003F
FC0000003F
FC0000003F
FC0000003F
FC0000003F
FC0000003F
FC0000003F
FC0000003F
FC0000003F
F80000001F
700000000F
2000000006
ENDCHAR
STARTCHAR 105
ENCODING 105
SWIDTH 3744 0
DWIDTH 52 0
BBX 6 28 40 0
BITMAP
1C
3C
7C
FC
FC
FC
FC
FC
FC
FC
FC
FC
FC
FC
FC
FC
FC
FC
FC
FC
FC
FC
FC
FC
FC
7C
3C
18
ENDCHAR
STARTCHAR 106
ENCODING 106
SWIDTH 3744 0
DWIDTH 52 0
BBX 40 61 6 -3
BITMAP
0000000006
000000000F
000000001F
000000003F
000000003F
000000003F
000000003F
000000003F
000000003F
000000003F
000000003F
000000003F
000000003F
000000003F
000000003F
000000003F
000000003F
000000003F
000000003F
000000003F
000000003F
000000003F
000000003F
000000003F
000000003F
000000001F
000000000F
0000000007
0000000000
0000000000
E000000007
F00000000F
F80000001F
FC0000003F
FC0000003F
FC0000003F
FC0000003F
FC0000003F
FC0000003F
FC0000003F
FC0000003F
FC0000003F
FC0000003F
FC0000003F
FC0000003F
FC0000003F
FC0000003F
FC0000003F
FC0000003F
FC0000003F
FC0000003F
FC0000003F
FC0000003F
FC0000003F
FC0000003F
F9FFFFFFDF
73FFFFFFEF
27FFFFFFF6
0FFFFFFFF8
0FFFFFFFF8
07FFFFFFF0
ENDCHAR
STARTCHAR 107
ENCODING 107
SWIDTH 3744 0
DWIDTH 52 0
BBX 40 61 6 0
BITMAP
07FFFFFFF0
0FFFFFFFF8
0FFFFFFFF8
27FFFFFFF0
73FFFFFFE0
F9FFFFFFC0
FC00000000
FC00000000
FC00000000
FC00000000
FC00000000
FC00000000
FC00000000
FC00000000
FC00000000
FC00000000
FC00000000
FC00000000
FC00000000
FC00000000
FC00000000
FC00000000
FC00000000
FC00000000
FC00000000
FC00000000
FC00000000
FC00000000
F800000000
F3FFFFFFC0
E7FFFFFFE0
0FFFFFFFF0
0FFFFFFFF0
E7FFFFFFE7
F3FFFFFFCF
F80000001F
FC0000003F
FC0000003F
FC0000003F
FC0000003F
FC0000003F
FC0000003F
FC0000003F
FC0000003F
FC0000003F
FC0000003F
FC0000003F
FC0000003F
FC0000003F
FC0000003F
FC0000003F
FC0000003F
FC0000003F
FC0000003F
FC0000003F
FC0000003F
FC0000003F
FC0000003F
F80000001F
700000000F
2000000006
ENDCHAR
STARTCHAR 108
ENCODING 108
SWIDTH 3744 0
DWIDTH 52 0
BBX 37 61 6 -3
BITMAP
2000000000
7000000000
F800000000
FC00000000
FC00000000
FC00000000
FC00000000
FC00000000
FC00000000
FC00000000
FC00000000
FC00000000
FC00000000
FC00000000
FC00000000
FC00000000
FC00000000
FC00000000
FC00000000
FC00000000
FC00000000
FC00000000
FC00000000
FC00000000
FC00000000
F800000000
F000000000
E000000000
0000000000
0000000000
E000000000
F000000000
F800000000
FC00000000
FC00000000
FC00000000
FC00000000
FC00000000
FC00000000
FC00000000
FC00000000
FC00000000
FC00000000
FC00000000
FC00000000
FC00000000
FC00000000
FC00000000
FC00000000
FC00000000
FC00000000
FC00000000
FC00000000
FC00000000
FC00000000
F9FFFFFFC0
73FFFFFFE0
27FFFFFFF0
0FFFFFFFF8
0FFFFFFFF8
07FFFFFFF0
ENDCHAR
STARTCHAR 109
ENCODING 109
SWIDTH 3744 0
DWIDTH 52 0
BBX 40 61 6 0
BITMAP
07FFFFFFF0
0FFFFFFFF8
0FFFFFFFF8
27FFFFFFF6
73FFFFFFEF
F9FFFFFFDF
FC0000003F
FC0000003F
FC0000003F
FC0000003F
FC0000003F
FC0000003F
FC0000003F
FC0000003F
FC0000003F
FC0000003F
FC0000003F
FC0000003F
FC0000003F
FC0000003F
FC0000003F
FC0000003F
FC0000003F
FC0000003F
FC0000003F
FC0000003F
FC0000003F
FC0000003F
F80000001F
F00000000F
E000000007
0000000000
0000000000
E000000007
F00000000F
F80000001F
FC0000003F
FC0000003F
FC0000003F
FC0000003F
FC0000003F
FC0000003F
FC0000003F
FC0000003F
FC0000003F
FC0000003F
FC0000003F
FC0000003F
FC0000003F
FC0000003F
FC0000003F
FC0000003F
FC0000003F
FC0000003F
FC0000003F
FC0000003F
FC0000003F
FC0000003F
F80000001F
700000000F
2000000006
ENDCHAR
STARTCHAR 110
ENCODING 110
SWIDTH 3744 0
DWIDTH 52 0
BBX 40 32 6 0
BITMAP
03FFFFFFC0
07FFFFFFE0
0FFFFFFFF0
0FFFFFFFF0
E7FFFFFFE7
F3FFFFFFCF
F80000001F
FC0000003F
FC0000003F
FC0000003F
FC0000003F
FC0000003F
FC0000003F
FC0000003F
FC0000003F
FC0000003F
FC0000003F
FC0000003F
FC0000003F
FC0000003F
FC0000003F
FC0000003F
FC0000003F
FC0000003F
FC0000003F
FC0000003F
FC0000003F
FC0000003F
FC0000003F
F80000001F
700000000F
2000000006
ENDCHAR
STARTCHAR 111
ENCODING 111
SWIDTH 3744 0
DWIDTH 52 0
BBX 40 35 6 -3
BITMAP
03FFFFFFC0
07FFFFFFE0
0FFFFFFFF0
0FFFFFFFF0
E7FFFFFFE7
F3FFFFFFCF
F80000001F
FC0000003F
FC0000003F
FC0000003F
FC0000003F
FC0000003F
FC0000003F
FC0000003F
FC0000003F
FC0000003F
FC0000003F
FC0000003F
FC0000003F
FC0000003F
FC0000003F
FC0000003F
FC0000003F
FC0000003F
FC0000003F
FC0000003F
FC0000003F
FC0000003F
FC0000003F
F9FFFFFFDF
73FFFFFFEF
27FFFFFFF6
0FFFFFFFF8
0FFFFFFFF8
07FFFFFFF0
ENDCHAR
STARTCHAR 112
ENCODING 112
SWIDTH 3744 0
DWIDTH 52 0
BBX 40 61 6 0
BITMAP
07FFFFFFF0
0FFFFFFFF8
0FFFFFFFF8
27FFFFFFF6
73FFFFFFEF
F9FFFFFFDF
FC0000003F
FC0000003F
FC0000003F
FC0000003F
FC0000003F
FC0000003F
FC0000003F
FC0000003F
FC0000003F
FC0000003F
FC0000003F
FC0000003F
FC0000003F
FC0000003F
FC0000003F
FC0000003F
FC0000003F
FC0000003F
FC0000003F
FC0000003F
FC0000003F
FC0000003F
F80000001F
F3FFFFFFCF
E7FFFFFFE7
0FFFFFFFF0
0FFFFFFFF0
E7FFFFFFE0
F3FFFFFFC0
F800000000
FC00000000
FC00000000
FC00000000
FC00000000
FC00000000
FC00000000
FC00000000
FC00000000
FC00000000
FC00000000
FC00000000
FC00000000
FC00000000
FC00000000
FC00000000
FC00000000
FC00000000
FC00000000
FC00000000
FC00000000
FC00000000
FC00000000
F800000000
7000000000
2000000000
ENDCHAR
STARTCHAR 113
ENCODING 113
SWIDTH 3744 0
DWIDTH 52 0
BBX 40 61 6 0
BITMAP
07FFFFFFF0
0FFFFFFFF8
0FFFFFFFF8
27FFFFFFF6
73FFFFFFEF
F9FFFFFFDF
FC0000003F
FC0000003F
FC0000003F
FC0000003F
FC0000003F
FC0000003F
FC0000003F
FC0000003F
FC0000003F
FC0000003F
FC0000003F
FC0000003F
FC0000003F
FC0000003F
FC0000003F
FC0000003F
FC0000003F
FC0000003F
FC0000003F
FC0000003F
FC0000003F
FC0000003F
F80000001F
F3FFFFFFCF
E7FFFFFFE7
0FFFFFFFF0
0FFFFFFFF0
07FFFFFFE7
03FFFFFFCF
000000001F
000000003F
000000003F
000000003F
000000003F
000000003F
000000003F
000000003F
000000003F
000000003F
000000003F
000000003F
000000003F
000000003F
000000003F
000000003F
000000003F
000000003F
000000003F
000000003F
000000003F
000000003F
000000003F
000000001F
000000000F
0000000006
ENDCHAR
STARTCHAR 114
ENCODING 114
SWIDTH 3744 0
DWIDTH 52 0
BBX 36 32 6 0
BITMAP
03FFFFFFC0
07FFFFFFE0
0FFFFFFFF0
0FFFFFFFF0
E7FFFFFFE0
F3FFFFFFC0
F800000000
FC00000000
FC00000000
FC00000000
FC00000000
FC00000000
FC00000000
FC00000000
FC00000000
FC00000000
FC00000000
FC00000000
FC00000000
FC00000000
FC00000000
FC00000000
FC00000000
FC00000000
FC00000000
FC00000000
FC00000000
FC00000000
FC00000000
F800000000
7000000000
2000000000
ENDCHAR
STARTCHAR 115
ENCODING 115
SWIDTH 3744 0
DWIDTH 52 0
BBX 40 61 6 -3
BITMAP
2000000000
7000000000
F800000000
FC00000000
FC00000000
FC00000000
FC00000000
FC00000000
FC00000000
FC00000000
FC00000000
FC00000000
FC00000000
FC00000000
FC00000000
FC00000000
FC00000000
FC00000000
FC00000000
FC00000000
FC00000000
FC00000000
FC00000000
FC00000000
FC00000000
F800000000
F3FFFFFFC0
E7FFFFFFE0
0FFFFFFFF0
0FFFFFFFF0
07FFFFFFE7
03FFFFFFCF
000000001F
000000003F
000000003F
000000003F
000000003F
000000003F
000000003F
000000003F
000000003F
000000003F
000000003F
000000003F
000000003F
000000003F
000000003F
000000003F
000000003F
000000003F
000000003F
000000003F
000000003F
000000003F
000000003F
01FFFFFFDF
03FFFFFFEF
07FFFFFFF6
0FFFFFFFF8
0FFFFFFFF8
07FFFFFFF0
ENDCHAR
STARTCHAR 116
ENCODING 116
SWIDTH 3744 0
DWIDTH 52 0
BBX 37 61 6 -3
BITMAP
2000000000
7000000000
F800000000
FC00000000
FC00000000
FC00000000
FC00000000
FC00000000
FC00000000
FC00000000
FC00000000
FC00000000
FC00000000
FC00000000
FC00000000
FC00000000
FC00000000
FC00000000
FC00000000
FC00000000
FC00000000
FC00000000
FC00000000
FC00000000
FC00000000
F800000000
F3FFFFFFC0
E7FFFFFFE0
0FFFFFFFF0
0FFFFFFFF0
E7FFFFFFE0
F3FFFFFFC0
F800000000
FC00000000
FC00000000
FC00000000
FC00000000
FC00000000
FC00000000
FC00000000
FC00000000
FC00000000
FC00000000
FC00000000
FC00000000
FC00000000
FC00000000
FC00000000
FC00000000
FC00000000
FC00000000
FC00000000
FC00000000
FC00000000
FC00000000
F9FFFFFFC0
73FFFFFFE0
27FFFFFFF0
0FFFFFFFF8
0FFFFFFFF8
07FFFFFFF0
ENDCHAR
STARTCHAR 117
ENCODING 117
SWIDTH 3744 0
DWIDTH 52 0
BBX 40 31 6 -3
BITMAP
E000000007
F00000000F
F80000001F
FC0000003F
FC0000003F
FC0000003F
FC0000003F
FC0000003F
FC0000003F
FC0000003F
FC0000003F
FC0000003F
FC0000003F
FC0000003F
FC0000003F
FC0000003F
FC0000003F
FC0000003F
FC0000003F
FC0000003F
FC0000003F
FC0000003F
FC0000003F
FC0000003F
FC0000003F
F9FFFFFFDF
73FFFFFFEF
27FFFFFFF6
0FFFFFFFF8
0FFFFFFFF8
07FFFFFFF0
ENDCHAR
STARTCHAR 118
ENCODING 118
SWIDTH 3744 0
DWIDTH 52 0
BBX 40 61 6 -3
BITMAP
2000000006
700000000F
F80000001F
FC0000003F
FC0000003F
FC0000003F
FC0000003F
FC0000003F
FC0000003F
FC0000003F
FC0000003F
FC0000003F
FC0000003F
FC0000003F
FC0000003F
FC0000003F
FC0000003F
FC0000003F
FC0000003F
FC0000003F
FC0000003F
FC0000003F
FC0000003F
FC0000003F
FC0000003F
F80000001F
F00000000F
E000000007
0000000000
0000000000
E000000007
F00000000F
F80000001F
FC0000003F
FC0000003F
FC0000003F
FC0000003F
FC0000003F
FC0000003F
FC0000003F
FC0000003F
FC0000003F
FC0000003F
FC0000003F
FC0000003F
FC0000003F
FC0000003F
FC0000003F
FC0000003F
FC0000003F
FC0000003F
FC0000003F
FC0000003F
FC0000003F
FC0000003F
F9FFFFFFDF
73FFFFFFEF
27FFFFFFF6
0FFFFFFFF8
0FFFFFFFF8
07FFFFFFF0
ENDCHAR
STARTCHAR 119
ENCODING 119
SWIDTH 3744 0
DWIDTH 52 0
BBX 40 61 6 -3
BITMAP
2000000006
700000000F
F80000001F
FC0000003F
FC0000003F
FC0000003F
FC0000003F
FC0000003F
FC0000003F
FC0000003F
FC0000003F
FC0000003F
FC0000003F
FC0000003F
FC0000003F
FC0000003F
FC0000003F
FC0000003F
FC0000003F
FC0000003F
FC0000003F
FC0000003F
FC0000003F
FC0000003F
FC0000003F
F80000001F
F3FFFFFFCF
E7FFFFFFE7
0FFFFFFFF0
0FFFFFFFF0
E7FFFFFFE7
F3FFFFFFCF
F80000001F
FC0000003F
FC0000003F
FC0000003F
FC0000003F
FC0000003F
FC0000003F
FC0000003F
FC0000003F
FC0000003F
FC0000003F
FC0000003F
FC0000003F
FC0000003F
FC0000003F
FC0000003F
FC0000003F
FC0000003F
FC0000003F
FC0000003F
FC0000003F
FC0000003F
FC0000003F
F9FFFFFFDF
73FFFFFFEF
27FFFFFFF6
0FFFFFFFF8
0FFFFFFFF8
07FFFFFFF0
ENDCHAR
STARTCHAR 120
ENCODING 120
SWIDTH 3744 0
DWIDTH 52 0
BBX 40 58 6 0
BITMAP
2000000006
700000000F
F80000001F
FC0000003F
FC0000003F
FC0000003F
FC0000003F
FC0000003F
FC0000003F
FC0000003F
FC0000003F
FC0000003F
FC0000003F
FC0000003F
FC0000003F
FC0000003F
FC0000003F
FC0000003F
FC0000003F
FC0000003F
FC0000003F
FC0000003F
FC0000003F
FC0000003F
FC0000003F
F80000001F
F3FFFFFFCF
E7FFFFFFE7
0FFFFFFFF0
0FFFFFFFF0
E7FFFFFFE7
F3FFFFFFCF
F80000001F
FC0000003F
FC0000003F
FC0000003F
FC0000003F
FC0000003F
FC0000003F
FC0000003F
FC0000003F
FC0000003F
FC0000003F
FC0000003F
FC0000003F
FC0000003F
FC0000003F
FC0000003F
FC0000003F
FC0000003F
FC0000003F
FC0000003F
FC0000003F
FC0000003F
FC0000003F
F80000001F
700000000F
2000000006
ENDCHAR
STARTCHAR 121
ENCODING 121
SWIDTH 3744 0
DWIDTH 52 0
BBX 40 61 6 -3
BITMAP
2000000006
700000000F
F80000001F
FC0000003F
FC0000003F
FC0000003F
FC0000003F
FC0000003F
FC0000003F
FC0000003F
FC0000003F
FC0000003F
FC0000003F
FC0000003F
FC0000003F
FC0000003F
FC0000003F
FC0000003F
FC0000003F
FC0000003F
FC0000003F
FC0000003F
FC0000003F
FC0000003F
FC0000003F
F80000001F
F3FFFFFFCF
E7FFFFFFE7
0FFFFFFFF0
0FFFFFFFF0
07FFFFFFE7
03FFFFFFCF
000000001F
000000003F
000000003F
000000003F
000000003F
000000003F
000000003F
000000003F
000000003F
000000003F
000000003F
000000003F
000000003F
000000003F
000000003F
000000003F
000000003F
000000003F
000000003F
000000003F
000000003F
000000003F
000000003F
01FFFFFFDF
03FFFFFFEF
07FFFFFFF6
0FFFFFFFF8
0FFFFFFFF8
07FFFFFFF0
ENDCHAR
STARTCHAR 122
ENCODING 122
SWIDTH 3744 0
DWIDTH 52 0
BBX 40 64 6 -3
BITMAP
07FFFFFFF0
0FFFFFFFF8
0FFFFFFFF8
07FFFFFFF6
03FFFFFFEF
01FFFFFFDF
000000003F
000000003F
000000003F
000000003F
000000003F
000000003F
000000003F
000000003F
000000003F
000000003F
000000003F
000000003F
000000003F
000000003F
000000003F
000000003F
000000003F
000000003F
000000003F
000000003F
000000003F
000000003F
000000001F
000000000F
0000000007
0000000000
0000000000
E000000000
F000000000
F800000000
FC00000000
FC00000000
FC00000000
FC00000000
FC00000000
FC00000000
FC00000000
FC00000000
FC00000000
FC00000000
FC00000000
FC00000000
FC00000000
FC00000000
FC00000000
FC00000000
FC00000000
FC00000000
FC00000000
FC00000000
FC00000000
FC00000000
F9FFFFFFC0
73FFFFFFE0
27FFFFFFF0
0FFFFFFFF8
0FFFFFFFF8
07FFFFFFF0
ENDCHAR
STARTCHAR 123
ENCODING 123
SWIDTH 1152 0
DWIDTH 16 0
BBX 14 35 1 -3
BITMAP
007C
01FC
03FC
03FC
07C0
07C0
0780
0780
0780
0780
0780
0780
0780
0780
0780
0780
0780
0780
0F00
0F00
3E00
FC00
F800
F800
FC00
3E00
0F00
0F00
0780
0780
0780
0780
0780
0780
0780
ENDCHAR
STARTCHAR 124
ENCODING 124
SWIDTH 864 0
DWIDTH 12 0
BBX 4 35 4 -3
BITMAP
F0
F0
F0
F0
F0
F0
F0
F0
F0
F0
F0
F0
F0
F0
F0
F0
F0
F0
F0
F0
F0
F0
F0
F0
F0
F0
F0
F0
F0
F0
F0
F0
F0
F0
F0
ENDCHAR
STARTCHAR 125
ENCODING 125
SWIDTH 1152 0
DWIDTH 16 0
BBX 14 35 1 -3
BITMAP
F800
FE00
FF00
FF00
0F80
0F80
0780
0780
0780
0780
0780
0780
0780
0780
0780
0780
0780
0780
03C0
03C0
01F0
00FC
007C
007C
00FC
01F0
03C0
03C0
0780
0780
0780
0780
0780
0780
0780
ENDCHAR
STARTCHAR 126
ENCODING 126
SWIDTH 2016 0
DWIDTH 28 0
BBX 24 7 2 25
BITMAP
1FC001
7FF803
FFFE0F
FFFFFF
F07FFF
C01FFE
8003F8
ENDCHAR
STARTCHAR 127
ENCODING 127
SWIDTH 1008 0
DWIDTH 14 0
BBX 12 36 1 -2
BITMAP
FFF0
FFF0
FFF0
E070
E070
E070
E070
E070
E070
E070
E070
E070
E070
E070
E070
E070
E070
E070
E070
E070
E070
E070
E070
E070
E070
E070
E070
E070
E070
E070
E070
E070
E070
FFF0
FFF0
FFF0
ENDCHAR
STARTCHAR 128
ENCODING 128
SWIDTH 0 0
DWIDTH 0 0
BBX 0 0 0 0
BITMAP
ENDCHAR
STARTCHAR 129
ENCODING 129
SWIDTH 0 0
DWIDTH 0 0
BBX 0 0 0 0
BITMAP
ENDCHAR
STARTCHAR 130
ENCODING 130
SWIDTH 0 0
DWIDTH 0 0
BBX 0 0 0 0
BITMAP
ENDCHAR
STARTCHAR 131
ENCODING 131
SWIDTH 0 0
DWIDTH 0 0
BBX 0 0 0 0
BITMAP
ENDCHAR
STARTCHAR 132
ENCODING 132
SWIDTH 0 0
DWIDTH 0 0
BBX 0 0 0 0
BITMAP
ENDCHAR
STARTCHAR 133
ENCODING 133
SWIDTH 0 0
DWIDTH 0 0
BBX 0 0 0 0
BITMAP
ENDCHAR
STARTCHAR 134
ENCODING 134
SWIDTH 0 0
DWIDTH 0 0
BBX 0 0 0 0
BITMAP
ENDCHAR
STARTCHAR 135
ENCODING 135
SWIDTH 0 0
DWIDTH 0 0
BBX 0 0 0 0
BITMAP
ENDCHAR
STARTCHAR 136
ENCODING 136
SWIDTH 0 0
DWIDTH 0 0
BBX 0 0 0 0
BITMAP
ENDCHAR
STARTCHAR 137
ENCODING 137
SWIDTH 0 0
DWIDTH 0 0
BBX 0 0 0 0
BITMAP
ENDCHAR
STARTCHAR 138
ENCODING 138
SWIDTH 0 0
DWIDTH 0 0
BBX 0 0 0 0
BITMAP
ENDCHAR
STARTCHAR 139
ENCODING 139
SWIDTH 0 0
DWIDTH 0 0
BBX 0 0 0 0
BITMAP
ENDCHAR
STARTCHAR 140
ENCODING 140
SWIDTH 0 0
DWIDTH 0 0
BBX 0 0 0 0
BITMAP
ENDCHAR
STARTCHAR 141
ENCODING 141
SWIDTH 0 0
DWIDTH 0 0
BBX 0 0 0 0
BITMAP
ENDCHAR
STARTCHAR 142
ENCODING 142
SWIDTH 0 0
DWIDTH 0 0
BBX 0 0 0 0
BITMAP
ENDCHAR
STARTCHAR 143
ENCODING 143
SWIDTH 0 0
DWIDTH 0 0
BBX 0 0 0 0
BITMAP
ENDCHAR
STARTCHAR 144
ENCODING 144
SWIDTH 0 0
DWIDTH 0 0
BBX 0 0 0 0
BITMAP
ENDCHAR
STARTCHAR 145
ENCODING 145
SWIDTH 0 0
DWIDTH 0 0
BBX 0 0 0 0
BITMAP
ENDCHAR
STARTCHAR 146
ENCODING 146
SWIDTH 0 0
DWIDTH 0 0
BBX 0 0 0 0
BITMAP
ENDCHAR
STARTCHAR 147
ENCODING 147
SWIDTH 0 0
DWIDTH 0 0
BBX 0 0 0 0
BITMAP
ENDCHAR
STARTCHAR 148
ENCODING 148
SWIDTH 0 0
DWIDTH 0 0
BBX 0 0 0 0
BITMAP
ENDCHAR
STARTCHAR 149
ENCODING 149
SWIDTH 0 0
DWIDTH 0 0
BBX 0 0 0 0
BITMAP
ENDCHAR
STARTCHAR 150
ENCODING 150
SWIDTH 0 0
DWIDTH 0 0
BBX 0 0 0 0
BITMAP
ENDCHAR
STARTCHAR 151
ENCODING 151
SWIDTH 0 0
DWIDTH 0 0
BBX 0 0 0 0
BITMAP
ENDCHAR
STARTCHAR 152
ENCODING 152
SWIDTH 0 0
DWIDTH 0 0
BBX 0 0 0 0
BITMAP
ENDCHAR
STARTCHAR 153
ENCODING 153
SWIDTH 0 0
DWIDTH 0 0
BBX 0 0 0 0
BITMAP
ENDCHAR
STARTCHAR 154
ENCODING 154
SWIDTH 0 0
DWIDTH 0 0
BBX 0 0 0 0
BITMAP
ENDCHAR
STARTCHAR 155
ENCODING 155
SWIDTH 0 0
DWIDTH 0 0
BBX 0 0 0 0
BITMAP
ENDCHAR
STARTCHAR 156
ENCODING 156
SWIDTH 0 0
DWIDTH 0 0
BBX 0 0 0 0
BITMAP
ENDCHAR
STARTCHAR 157
ENCODING 157
SWIDTH 0 0
DWIDTH 0 0
BBX 0 0 0 0
BITMAP
ENDCHAR
STARTCHAR 158
ENCODING 158
SWIDTH 0 0
DWIDTH 0 0
BBX 0 0 0 0
BITMAP
ENDCHAR
STARTCHAR 159
ENCODING 159
SWIDTH 0 0
DWIDTH 0 0
BBX 0 0 0 0
BITMAP
ENDCHAR
STARTCHAR 160
ENCODING 160
SWIDTH 936 0
DWIDTH 13 0
BBX 0 0 0 0
BITMAP
ENDCHAR
STARTCHAR 161
ENCODING 161
SWIDTH 936 0
DWIDTH 13 0
BBX 4 26 4 -3
BITMAP
F0
F0
F0
F0
F0
00
00
00
00
60
60
60
60
60
60
F0
F0
F0
F0
F0
F0
F0
F0
F0
F0
F0
ENDCHAR
STARTCHAR 162
ENCODING 162
SWIDTH 1944 0
DWIDTH 27 0
BBX 21 32 3 -3
BITMAP
000300
000380
000380
000700
000700
00FF00
07FF80
0FFFC0
1F8FE0
3E0EF0
3C0EF0
781C78
781C78
781C00
F03C00
F03800
F03800
F03800
F07800
F07000
F07000
F07000
F0E000
78E000
78E078
78E078
3DC0F0
3FC0F0
1FC3E0
0FFFC0
03FF80
03FE00
ENDCHAR
STARTCHAR 163
ENCODING 163
SWIDTH 1944 0
DWIDTH 27 0
BBX 24 36 1 -3
BITMAP
007F80
01FFE0
07FFF8
0FFFFC
1FC07E
1F003E
3E001F
3E000F
3C000F
3C0000
3C0000
3C0000
3C0000
3C0000
1E0000
1E0000
FFFF00
FFFF00
FFFF00
FFFF00
0F0000
0F0000
0F0000
0F0000
0F0000
0F0000
0E0000
1E0000
1C0000
380000
7FE001
FFFE07
FFFFFF
FFFFFF
F00FFF
8000FC
ENDCHAR
STARTCHAR 164
ENCODING 164
SWIDTH 1944 0
DWIDTH 27 0
BBX 24 24 1 3
BITMAP
100008
30000C
787E1E
FDFFBF
3FFFFC
1FFFF8
0FC3F0
1F00F8
1E0078
3E007C
3C003C
3C003C
3C003C
3C003C
3E007C
1E0078
1F00F8
0FC3F0
1FFFF8
3FFFFC
FDFFBF
787E1E
30000C
100008
ENDCHAR
STARTCHAR 165
ENCODING 165
SWIDTH 1944 0
DWIDTH 27 0
BBX 26 34 0 -2
BITMAP
F80007C0
78000780
7C000F80
3C000F00
3E001F00
1E001E00
0F003C00
0F003C00
07807800
07807800
03C0F000
03C0F000
01E1E000
01E1E000
00F3C000
00738000
7FFFFF80
7FFFFF80
7FFFFF80
7FFFFF80
001E0000
001E0000
001E0000
001E0000
7FFFFF80
7FFFFF80
7FFFFF80
7FFFFF80
001E0000
001E0000
001E0000
001E0000
001E0000
001E0000
ENDCHAR
STARTCHAR 166
ENCODING 166
SWIDTH 864 0
DWIDTH 12 0
BBX 4 35 4 -3
BITMAP
F0
F0
F0
F0
F0
F0
F0
F0
F0
F0
F0
F0
F0
F0
F0
F0
F0
F0
00
00
00
00
00
00
00
00
00
F0
F0
F0
F0
F0
F0
F0
F0
ENDCHAR
STARTCHAR 167
ENCODING 167
SWIDTH 1944 0
DWIDTH 27 0
BBX 23 36 2 -3
BITMAP
01FE00
07FF80
0FFFC0
1F03E0
1E00F0
3C00F0
3C0078
3C0078
3C0000
3E0000
1F0000
1F8000
0FE000
07F000
1FFC00
3EFF00
787F80
781FE0
F00FF0
F003F8
F000FC
F0007C
F8003E
7C001E
7E001E
3F001E
1FC01E
0FF03C
07FC3C
01FEF8
00FFE0
003F80
000FE0
0007F0
0001F0
0000F8
ENDCHAR
STARTCHAR 168
ENCODING 168
SWIDTH 1152 0
DWIDTH 16 0
BBX 13 5 1 27
BITMAP
F078
F078
F078
F078
F078
ENDCHAR
STARTCHAR 169
ENCODING 169
SWIDTH 2520 0
DWIDTH 35 0
BBX 35 36 0 -3
BITMAP
0007FC0000
003FFF8000
007FFFC000
01FC07F000
03E000F800
0780003C00
0F00001E00
1E00000F00
1C03F80700
3C0FFE0780
381FFF0380
703E0781C0
707803C1C0
707001C1C0
E0F00000E0
E0E00000E0
E0E00000E0
E0E00000E0
E0E00000E0
E0E00000E0
E0E00000E0
E0F00000E0
707001C1C0
70780381C0
703E0781C0
381FFF0380
3C0FFE0780
1C03F80700
1E00000F00
0F00001E00
0780003C00
03E000F800
01FC07F000
007FFFC000
003FFF8000
0007FC0000
ENDCHAR
STARTCHAR 170
ENCODING 170
SWIDTH 1296 0
DWIDTH 18 0
BBX 15 23 1 10
BITMAP
07F0
1FF8
3FFC
781E
700E
000E
000E
07FE
3FFE
7FFE
F80E
E00E
E00E
F07E
7FFE
7FFE
1FCE
0000
0000
0000
7FFE
7FFE
7FFE
ENDCHAR
STARTCHAR 171
ENCODING 171
SWIDTH 1944 0
DWIDTH 27 0
BBX 20 21 3 0
BITMAP
01E0F0
03C1E0
0381C0
0783C0
0F0780
0E0700
1E0F00
3C1E00
783C00
783C00
F07800
783C00
783C00
3C1E00
1E0F00
0E0700
0F0780
0783C0
0381C0
03C1E0
01E0F0
ENDCHAR
STARTCHAR 172
ENCODING 172
SWIDTH 2016 0
DWIDTH 28 0
BBX 22 14 3 8
BITMAP
FFFFFC
FFFFFC
FFFFFC
FFFFFC
00003C
00003C
00003C
00003C
00003C
00003C
00003C
00003C
00003C
00003C
ENDCHAR
STARTCHAR 173
ENCODING 173
SWIDTH 1152 0
DWIDTH 16 0
BBX 12 4 2 9
BITMAP
FFF0
FFF0
FFF0
FFF0
ENDCHAR
STARTCHAR 174
ENCODING 174
SWIDTH 2520 0
DWIDTH 35 0
BBX 35 36 0 -3
BITMAP
0007FC0000
003FFF8000
007FFFC000
01FC07F000
03E000F800
0780003C00
0F00001E00
1E00000F00
1C00000700
3C3FF80780
383FFC0380
703FFE01C0
70380F01C0
70380701C0
E0380700E0
E0380700E0
E0380F00E0
E03FFE00E0
E03FFC00E0
E03FE000E0
E0383800E0
E0381C00E0
70380E01C0
70380E01C0
70380F01C0
3838070380
3C38070780
1C38038700
1E00000F00
0F00001E00
0780003C00
03E000F800
01FC07F000
007FFFC000
003FFF8000
0007FC0000
ENDCHAR
STARTCHAR 175
ENCODING 175
SWIDTH 1728 0
DWIDTH 24 0
BBX 24 2 0 36
BITMAP
FFFFFF
FFFFFF
ENDCHAR
STARTCHAR 176
ENCODING 176
SWIDTH 3744 0
DWIDTH 52 0
BBX 40 35 6 26
BITMAP
07FFFFFFF0
0FFFFFFFF8
0FFFFFFFF8
27FFFFFFF6
73FFFFFFEF
F9FFFFFFDF
FC0000003F
FC0000003F
FC0000003F
FC0000003F
FC0000003F
FC0000003F
FC0000003F
FC0000003F
FC0000003F
FC0000003F
FC0000003F
FC0000003F
FC0000003F
FC0000003F
FC0000003F
FC0000003F
FC0000003F
FC0000003F
FC0000003F
FC0000003F
FC0000003F
FC0000003F
F80000001F
F3FFFFFFCF
E7FFFFFFE7
0FFFFFFFF0
0FFFFFFFF0
07FFFFFFE0
03FFFFFFC0
ENDCHAR
STARTCHAR 177
ENCODING 177
SWIDTH 2016 0
DWIDTH 28 0
BBX 22 29 3 -2
BITMAP
007800
007800
007800
007800
007800
007800
007800
007800
007800
FFFFFC
FFFFFC
FFFFFC
FFFFFC
007800
007800
007800
007800
007800
007800
007800
007800
007800
000000
000000
000000
FFFFFC
FFFFFC
FFFFFC
FFFFFC
ENDCHAR
STARTCHAR 178
ENCODING 178
SWIDTH 1152 0
DWIDTH 16 0
BBX 14 18 1 15
BITMAP
0FC0
3FF0
7FF8
F03C
E01C
001C
001C
003C
0078
00F0
01E0
07C0
0F00
3E00
3C00
7FFC
FFFC
FFFC
ENDCHAR
STARTCHAR 179
ENCODING 179
SWIDTH 1152 0
DWIDTH 16 0
BBX 14 18 1 15
BITMAP
0FC0
3FF0
7FF0
F078
E038
0038
0078
03F0
03C0
03F8
003C
001C
001C
E01C
F03C
7FF8
3FF0
0FC0
ENDCHAR
STARTCHAR 180
ENCODING 180
SWIDTH 1152 0
DWIDTH 16 0
BBX 9 7 5 26
BITMAP
1F80
1F00
3E00
3C00
7C00
7800
F000
ENDCHAR
STARTCHAR 181
ENCODING 181
SWIDTH 1944 0
DWIDTH 27 0
BBX 24 26 3 -3
BITMAP
F00078
F00078
F00078
F00078
F00078
F00078
F00078
F00078
F00078
F00078
F00078
F00078
F00078
F00078
F00078
F00078
F00078
F00078
F00078
F000F8
F803F8
FE07FC
FFFF7F
FFFE3F
FFFC1F
F7F000
ENDCHAR
STARTCHAR 182
ENCODING 182
SWIDTH 1872 0
DWIDTH 26 0
BBX 26 35 0 -3
BITMAP
01FFFFC0
0FFFFFC0
1FFFFFC0
3FFFFFC0
7FFC1E00
7FFC1E00
FFFC1E00
FFFC1E00
FFFC1E00
FFFC1E00
FFFC1E00
FFFC1E00
FFFC1E00
7FFC1E00
7FFC1E00
3FFC1E00
1FFC1E00
0FFC1E00
01FC1E00
003C1E00
003C1E00
003C1E00
003C1E00
003C1E00
003C1E00
003C1E00
003C1E00
003C1E00
003C1E00
003C1E00
003C1E00
003C1E00
003C1E00
003C1E00
003C1E00
ENDCHAR
STARTCHAR 183
ENCODING 183
SWIDTH 936 0
DWIDTH 13 0
BBX 4 5 4 12
BITMAP
F0
F0
F0
F0
F0
ENDCHAR
STARTCHAR 184
ENCODING 184
SWIDTH 1152 0
DWIDTH 16 0
BBX 3 1 5 -3
BITMAP
E0
ENDCHAR
STARTCHAR 185
ENCODING 185
SWIDTH 1152 0
DWIDTH 16 0
BBX 9 18 2 15
BITMAP
0180
0380
0380
0F80
FF80
FF80
FB80
0380
0380
0380
0380
0380
0380
0380
0380
0380
0380
0380
ENDCHAR
STARTCHAR 186
ENCODING 186
SWIDTH 1296 0
DWIDTH 18 0
BBX 15 23 1 10
BITMAP
07C0
1FF0
3FF8
783C
701C
E00E
E00E
E00E
E00E
E00E
E00E
E00E
701C
783C
3FF8
1FF0
07C0
0000
0000
0000
7FFC
7FFC
7FFC
ENDCHAR
STARTCHAR 187
ENCODING 187
SWIDTH 1944 0
DWIDTH 27 0
BBX 20 21 4 0
BITMAP
F07800
783C00
381C00
3C1E00
1E0F00
0E0700
0F0780
0783C0
03C1E0
03C1E0
01E0F0
03C1E0
03C1E0
0783C0
0F0780
0E0700
1E0F00
3C1E00
381C00
783C00
F07800
ENDCHAR
STARTCHAR 188
ENCODING 188
SWIDTH 2880 0
DWIDTH 40 0
BBX 34 35 3 -2
BITMAP
0180000000
0380000E00
0380001C00
0F80003800
FF80007000
FF80007000
FB8000E000
038001C000
0380038000
0380038000
0380070000
03800E0000
03800E0000
03801C0000
0380380000
0380700000
0380700000
0380E00700
0001C00F00
0003801F00
0003803F00
0007003700
000E006700
001C00E700
001C01C700
0038038700
0070070700
0070060700
00E00FFFC0
01C00FFFC0
03800FFFC0
0380000700
0700000700
0E00000700
1C00000700
ENDCHAR
STARTCHAR 189
ENCODING 189
SWIDTH 2880 0
DWIDTH 40 0
BBX 36 35 3 -2
BITMAP
0180000000
0380000E00
0380001C00
0F80003800
FF80007000
FF80007000
FB8000E000
038001C000
0380038000
0380038000
0380070000
03800E0000
03800E0000
03801C0000
0380380000
0380700000
0380700000
0380E03F00
0001C0FFC0
000381FFE0
000383C0F0
0007038070
000E000070
001C000070
001C0000F0
00380001E0
00700003C0
0070000780
00E0001F00
01C0003C00
038000F800
038000F000
070001FFF0
0E0003FFF0
1C0003FFF0
ENDCHAR
STARTCHAR 190
ENCODING 190
SWIDTH 2880 0
DWIDTH 40 0
BBX 36 35 1 -2
BITMAP
0FC0000000
3FF00001C0
7FF0000380
F078000700
E038000E00
0038000E00
0078001C00
03F0003800
03C0007000
03F8007000
003C00E000
001C01C000
001C01C000
E01C038000
F03C070000
7FF80E0000
3FF00E0000
0FC01C01C0
00003803C0
00007007C0
0000700FC0
0000E00DC0
0001C019C0
00038039C0
00038071C0
000700E1C0
000E01C1C0
000E0181C0
001C03FFF0
003803FFF0
007003FFF0
00700001C0
00E00001C0
01C00001C0
03800001C0
ENDCHAR
STARTCHAR 191
ENCODING 191
SWIDTH 1944 0
DWIDTH 27 0
BBX 14 26 2 -3
BITMAP
003C
003C
003C
003C
003C
0000
0000
0000
0000
003C
003C
003C
003C
007C
0078
00F8
01F0
03E0
0FE0
1F80
3F00
3E00
7C00
7800
F000
F000
ENDCHAR
STARTCHAR 192
ENCODING 192
SWIDTH 2304 0
DWIDTH 32 0
BBX 32 43 0 -2
BITMAP
003F0000
001F0000
000F8000
00078000
0007C000
0003C000
0001E000
00000000
00000000
0007C000
0007E000
000FE000
000EE000
001EF000
001E7000
001C7800
003C3800
00383C00
00783C00
00781C00
00701E00
00F01E00
00F00F00
00E00F00
01E00700
01E00780
03C00780
03C003C0
038003C0
07FFFFC0
07FFFFE0
0FFFFFE0
0FFFFFF0
0F0000F0
1E0000F8
1E000078
1E000078
3C00003C
3C00003C
7800003E
7800001E
7800001E
F000000F
ENDCHAR
STARTCHAR 193
ENCODING 193
SWIDTH 2304 0
DWIDTH 32 0
BBX 32 43 0 -2
BITMAP
0000FC00
0000F800
0001F000
0001E000
0003E000
0003C000
00078000
00000000
00000000
0007C000
0007E000
000FE000
000EE000
001EF000
001E7000
001C7800
003C3800
00383C00
00783C00
00781C00
00701E00
00F01E00
00F00F00
00E00F00
01E00700
01E00780
03C00780
03C003C0
038003C0
07FFFFC0
07FFFFE0
0FFFFFE0
0FFFFFF0
0F0000F0
1E0000F8
1E000078
1E000078
3C00003C
3C00003C
7800003E
7800001E
7800001E
F000000F
ENDCHAR
STARTCHAR 194
ENCODING 194
SWIDTH 2304 0
DWIDTH 32 0
BBX 32 43 0 -2
BITMAP
0007C000
000FE000
001FF000
001EF000
003C7800
007C7C00
00F83E00
00000000
00000000
0007C000
0007E000
000FE000
000EE000
001EF000
001E7000
001C7800
003C3800
00383C00
00783C00
00781C00
00701E00
00F01E00
00F00F00
00E00F00
01E00700
01E00780
03C00780
03C003C0
038003C0
07FFFFC0
07FFFFE0
0FFFFFE0
0FFFFFF0
0F0000F0
1E0000F8
1E000078
1E000078
3C00003C
3C00003C
7800003E
7800001E
7800001E
F000000F
ENDCHAR
STARTCHAR 195
ENCODING 195
SWIDTH 2304 0
DWIDTH 32 0
BBX 32 42 0 -2
BITMAP
001E0700
007FCF00
007FFE00
00F3FE00
00E07800
00000000
00000000
00000000
0007C000
0007E000
000FE000
000EE000
001EF000
001E7000
001C7800
003C3800
00383C00
00783C00
00781C00
00701E00
00F01E00
00F00F00
00E00F00
01E00700
01E00780
03C00780
03C003C0
038003C0
07FFFFC0
07FFFFE0
0FFFFFE0
0FFFFFF0
0F0000F0
1E0000F8
1E000078
1E000078
3C00003C
3C00003C
7800003E
7800001E
7800001E
F000000F
ENDCHAR
STARTCHAR 196
ENCODING 196
SWIDTH 2304 0
DWIDTH 32 0
BBX 32 42 0 -2
BITMAP
00783C00
00783C00
00783C00
00783C00
00783C00
00000000
00000000
00000000
0007C000
0007E000
000FE000
000EE000
001EF000
001E7000
001C7800
003C3800
00383C00
00783C00
00781C00
00701E00
00F01E00
00F00F00
00E00F00
01E00700
01E00780
03C00780
03C003C0
038003C0
07FFFFC0
07FFFFE0
0FFFFFE0
0FFFFFF0
0F0000F0
1E0000F8
1E000078
1E000078
3C00003C
3C00003C
7800003E
7800001E
7800001E
F000000F
ENDCHAR
STARTCHAR 197
ENCODING 197
SWIDTH 2304 0
DWIDTH 32 0
BBX 32 44 0 -2
BITMAP
0003C000
0007E000
000E7000
000C3000
000C3000
000E7000
0007E000
0003C000
00000000
00000000
0007C000
0007E000
000FE000
000EE000
001EF000
001E7000
001C7800
003C3800
00383C00
00783C00
00781C00
00701E00
00F01E00
00F00F00
00E00F00
01E00700
01E00780
03C00780
03C003C0
038003C0
07FFFFC0
07FFFFE0
0FFFFFE0
0FFFFFF0
0F0000F0
1E0000F8
1E000078
1E000078
3C00003C
3C00003C
7800003E
7800001E
7800001E
F000000F
ENDCHAR
STARTCHAR 198
ENCODING 198
SWIDTH 3456 0
DWIDTH 48 0
BBX 46 34 0 -2
BITMAP
000007FFFFF8
00000FFFFFF8
00001FFFFFF8
00001FFFFFF8
00003DE00000
000079E00000
000079E00000
0000F1E00000
0000E1E00000
0001E1E00000
0003C1E00000
0003C1E00000
000781E00000
000701E00000
000F01FFFFF0
001E01FFFFF0
001E01FFFFF0
003C01FFFFF0
007C01E00000
007801E00000
00FFFFE00000
00FFFFE00000
01FFFFE00000
03FFFFE00000
03C001E00000
078001E00000
078001E00000
0F0001E00000
1F0001E00000
1E0001E00000
3E0001FFFFFC
3C0001FFFFFC
780001FFFFFC
F80001FFFFFC
ENDCHAR
STARTCHAR 199
ENCODING 199
SWIDTH 2520 0
DWIDTH 35 0
BBX 31 36 2 -3
BITMAP
000FF800
007FFF00
01FFFFC0
03FFFFE0
07F807F0
0FC001F8
1F80007C
1F00003C
3E00003C
3C00001E
7800001E
78000000
78000000
F0000000
F0000000
F0000000
F0000000
F0000000
F0000000
F0000000
F0000000
F0000000
F0000000
78000000
78000000
7800001E
7C00001E
3E00003E
3F00003C
1F80007C
0FC001F8
07F807F0
03FFFFE0
01FFFFC0
007FFF00
001FF800
ENDCHAR
STARTCHAR 200
ENCODING 200
SWIDTH 2304 0
DWIDTH 32 0
BBX 26 43 4 -2
BITMAP
01F80000
00F80000
007C0000
003C0000
003E0000
001E0000
000F0000
00000000
00000000
FFFFFF80
FFFFFF80
FFFFFF80
FFFFFF80
F0000000
F0000000
F0000000
F0000000
F0000000
F0000000
F0000000
F0000000
F0000000
F0000000
FFFFFF00
FFFFFF00
FFFFFF00
FFFFFF00
F0000000
F0000000
F0000000
F0000000
F0000000
F0000000
F0000000
F0000000
F0000000
F0000000
F0000000
F0000000
FFFFFFC0
FFFFFFC0
FFFFFFC0
FFFFFFC0
ENDCHAR
STARTCHAR 201
ENCODING 201
SWIDTH 2304 0
DWIDTH 32 0
BBX 26 43 4 -2
BITMAP
0007E000
0007C000
000F8000
000F0000
001F0000
001E0000
003C0000
00000000
00000000
FFFFFF80
FFFFFF80
FFFFFF80
FFFFFF80
F0000000
F0000000
F0000000
F0000000
F0000000
F0000000
F0000000
F0000000
F0000000
F0000000
FFFFFF00
FFFFFF00
FFFFFF00
FFFFFF00
F0000000
F0000000
F0000000
F0000000
F0000000
F0000000
F0000000
F0000000
F0000000
F0000000
F0000000
F0000000
FFFFFFC0
FFFFFFC0
FFFFFFC0
FFFFFFC0
ENDCHAR
STARTCHAR 202
ENCODING 202
SWIDTH 2304 0
DWIDTH 32 0
BBX 26 43 4 -2
BITMAP
001F0000
003F8000
007FC000
007BC000
00F1E000
01F1F000
03E0F800
00000000
00000000
FFFFFF80
FFFFFF80
FFFFFF80
FFFFFF80
F0000000
F0000000
F0000000
F0000000
F0000000
F0000000
F0000000
F0000000
F0000000
F0000000
FFFFFF00
FFFFFF00
FFFFFF00
FFFFFF00
F0000000
F0000000
F0000000
F0000000
F0000000
F0000000
F0000000
F0000000
F0000000
F0000000
F0000000
F0000000
FFFFFFC0
FFFFFFC0
FFFFFFC0
FFFFFFC0
ENDCHAR
STARTCHAR 203
ENCODING 203
SWIDTH 2304 0
DWIDTH 32 0
BBX 26 42 4 -2
BITMAP
01E0F000
01E0F000
01E0F000
01E0F000
01E0F000
00000000
00000000
00000000
FFFFFF80
FFFFFF80
FFFFFF80
FFFFFF80
F0000000
F0000000
F0000000
F0000000
F0000000
F0000000
F0000000
F0000000
F0000000
F0000000
FFFFFF00
FFFFFF00
FFFFFF00
FFFFFF00
F0000000
F0000000
F0000000
F0000000
F0000000
F0000000
F0000000
F0000000
F0000000
F0000000
F0000000
F0000000
FFFFFFC0
FFFFFFC0
FFFFFFC0
FFFFFFC0
ENDCHAR
STARTCHAR 204
ENCODING 204
SWIDTH 936 0
DWIDTH 13 0
BBX 9 43 0 -2
BITMAP
FC00
7C00
3E00
1E00
1F00
0F00
0780
0000
0000
0F00
0F00
0F00
0F00
0F00
0F00
0F00
0F00
0F00
0F00
0F00
0F00
0F00
0F00
0F00
0F00
0F00
0F00
0F00
0F00
0F00
0F00
0F00
0F00
0F00
0F00
0F00
0F00
0F00
0F00
0F00
0F00
0F00
0F00
ENDCHAR
STARTCHAR 205
ENCODING 205
SWIDTH 936 0
DWIDTH 13 0
BBX 9 43 3 -2
BITMAP
1F80
1F00
3E00
3C00
7C00
7800
F000
0000
0000
7800
7800
7800
7800
7800
7800
7800
7800
7800
7800
7800
7800
7800
7800
7800
7800
7800
7800
7800
7800
7800
7800
7800
7800
7800
7800
7800
7800
7800
7800
7800
7800
7800
7800
ENDCHAR
STARTCHAR 206
ENCODING 206
SWIDTH 936 0
DWIDTH 13 0
BBX 13 43 0 -2
BITMAP
0F80
1FC0
3FE0
3DE0
78F0
F8F8
F078
0000
0000
0F00
0F00
0F00
0F00
0F00
0F00
0F00
0F00
0F00
0F00
0F00
0F00
0F00
0F00
0F00
0F00
0F00
0F00
0F00
0F00
0F00
0F00
0F00
0F00
0F00
0F00
0F00
0F00
0F00
0F00
0F00
0F00
0F00
0F00
ENDCHAR
STARTCHAR 207
ENCODING 207
SWIDTH 936 0
DWIDTH 13 0
BBX 12 42 0 -2
BITMAP
F0F0
F0F0
F0F0
F0F0
F0F0
0000
0000
0000
0F00
0F00
0F00
0F00
0F00
0F00
0F00
0F00
0F00
0F00
0F00
0F00
0F00
0F00
0F00
0F00
0F00
0F00
0F00
0F00
0F00
0F00
0F00
0F00
0F00
0F00
0F00
0F00
0F00
0F00
0F00
0F00
0F00
0F00
ENDCHAR
STARTCHAR 208
ENCODING 208
SWIDTH 2520 0
DWIDTH 35 0
BBX 33 34 0 -2
BITMAP
0FFFF80000
0FFFFF0000
0FFFFFC000
0FFFFFF000
0F000FF800
0F0001FC00
0F00007C00
0F00003E00
0F00001F00
0F00001F00
0F00000F00
0F00000F00
0F00000780
0F00000780
0F00000780
FFFFC00780
FFFFC00780
FFFFC00780
FFFFC00780
0F00000780
0F00000780
0F00000F80
0F00000F00
0F00000F00
0F00001F00
0F00001E00
0F00003E00
0F00007C00
0F0001FC00
0F000FF800
0FFFFFF000
0FFFFFC000
0FFFFF0000
0FFFF80000
ENDCHAR
STARTCHAR 209
ENCODING 209
SWIDTH 2520 0
DWIDTH 35 0
BBX 27 42 4 -2
BITMAP
00781C00
01FF3C00
01FFF800
03CFF800
0381E000
00000000
00000000
00000000
F80001E0
F80001E0
FC0001E0
FE0001E0
FE0001E0
FF0001E0
FF8001E0
F78001E0
F3C001E0
F3E001E0
F1E001E0
F0F001E0
F0F801E0
F07801E0
F03C01E0
F03E01E0
F01E01E0
F00F01E0
F00F81E0
F00781E0
F003C1E0
F003E1E0
F001E1E0
F000F1E0
F000F9E0
F00079E0
F0003DE0
F0003FE0
F0001FE0
F0000FE0
F0000FE0
F00007E0
F00003E0
F00003E0
ENDCHAR
STARTCHAR 210
ENCODING 210
SWIDTH 2664 0
DWIDTH 37 0
BBX 33 44 2 -3
BITMAP
001F800000
000F800000
0007C00000
0003C00000
0003E00000
0001E00000
0000F00000
0000000000
000FF80000
007FFF0000
00FFFFC000
03FFFFE000
07F80FF000
0FC001F800
1F8000FC00
1F00007C00
3E00003E00
3C00001E00
7C00001F00
7800000F00
7800000F00
F000000780
F000000780
F000000780
F000000780
F000000780
F000000780
F000000780
F000000780
F000000780
F000000780
7800000F00
7800000F00
7C00001F00
3C00001E00
3E00003E00
1F00007C00
1F8000FC00
0FC001F800
07F80FF000
03FFFFE000
00FFFFC000
007FFF0000
000FF80000
ENDCHAR
STARTCHAR 211
ENCODING 211
SWIDTH 2664 0
DWIDTH 37 0
BBX 33 44 2 -3
BITMAP
00007E0000
00007C0000
0000F80000
0000F00000
0001F00000
0001E00000
0003C00000
0000000000
000FF80000
007FFF0000
00FFFFC000
03FFFFE000
07F80FF000
0FC001F800
1F8000FC00
1F00007C00
3E00003E00
3C00001E00
7C00001F00
7800000F00
7800000F00
F000000780
F000000780
F000000780
F000000780
F000000780
F000000780
F000000780
F000000780
F000000780
F000000780
7800000F00
7800000F00
7C00001F00
3C00001E00
3E00003E00
1F00007C00
1F8000FC00
0FC001F800
07F80FF000
03FFFFE000
00FFFFC000
007FFF0000
000FF80000
ENDCHAR
STARTCHAR 212
ENCODING 212
SWIDTH 2664 0
DWIDTH 37 0
BBX 33 44 2 -3
BITMAP
0003E00000
0007F00000
000FF80000
000F780000
001E3C0000
003E3E0000
007C1F0000
0000000000
000FF80000
007FFF0000
00FFFFC000
03FFFFE000
07F80FF000
0FC001F800
1F8000FC00
1F00007C00
3E00003E00
3C00001E00
7C00001F00
7800000F00
7800000F00
F000000780
F000000780
F000000780
F000000780
F000000780
F000000780
F000000780
F000000780
F000000780
F000000780
7800000F00
7800000F00
7C00001F00
3C00001E00
3E00003E00
1F00007C00
1F8000FC00
0FC001F800
07F80FF000
03FFFFE000
00FFFFC000
007FFF0000
000FF80000
ENDCHAR
STARTCHAR 213
ENCODING 213
SWIDTH 2664 0
DWIDTH 37 0
BBX 33 43 2 -3
BITMAP
000F038000
003FE78000
003FFF0000
0079FF0000
00703C0000
0000000000
0000000000
000FF80000
007FFF0000
00FFFFC000
03FFFFE000
07F80FF000
0FC001F800
1F8000FC00
1F00007C00
3E00003E00
3C00001E00
7C00001F00
7800000F00
7800000F00
F000000780
F000000780
F000000780
F000000780
F000000780
F000000780
F000000780
F000000780
F000000780
F000000780
7800000F00
7800000F00
7C00001F00
3C00001E00
3E00003E00
1F00007C00
1F8000FC00
0FC001F800
07F80FF000
03FFFFE000
00FFFFC000
007FFF0000
000FF80000
ENDCHAR
STARTCHAR 214
ENCODING 214
SWIDTH 2664 0
DWIDTH 37 0
BBX 33 43 2 -3
BITMAP
003C1E0000
003C1E0000
003C1E0000
003C1E0000
003C1E0000
0000000000
0000000000
000FF80000
007FFF0000
00FFFFC000
03FFFFE000
07F80FF000
0FC001F800
1F8000FC00
1F00007C00
3E00003E00
3C00001E00
7C00001F00
7800000F00
7800000F00
F000000780
F000000780
F000000780
F000000780
F000000780
F000000780
F000000780
F000000780
F000000780
F000000780
7800000F00
7800000F00
7C00001F00
3C00001E00
3E00003E00
1F00007C00
1F8000FC00
0FC001F800
07F80FF000
03FFFFE000
00FFFFC000
007FFF0000
000FF80000
ENDCHAR
STARTCHAR 215
ENCODING 215
SWIDTH 2016 0
DWIDTH 28 0
BBX 21 21 4 4
BITMAP
100040
300060
7800F0
FC01F8
3E03E0
1F07C0
0F8F80
07DF00
03FE00
01FC00
00F800
01FC00
03FE00
07DF00
0F8F80
1F07C0
3E03E0
FC01F8
7800F0
300060
100040
ENDCHAR
STARTCHAR 216
ENCODING 216
SWIDTH 2664 0
DWIDTH 37 0
BBX 33 36 2 -3
BITMAP
000FF80300
007FFF0780
00FFFF8700
03FFFFEE00
07F80FFC00
0FC001FC00
1F8000FC00
1F0000FC00
3E0001FE00
3C0003DE00
7C00079F00
78000F0F00
78000E0F00
F0001C0F80
F000380780
F000780780
F000F00780
F001E00780
F003C00780
F007800780
F00F000780
F00E000780
F81C000780
7838000F00
7878000F00
7CF0001F00
3DE0001E00
3FC0003E00
1F80007C00
1F8000FC00
1FC001F800
1FF80FF000
3BFFFFE000
70FFFFC000
F07FFF0000
600FF80000
ENDCHAR
STARTCHAR 217
ENCODING 217
SWIDTH 2520 0
DWIDTH 35 0
BBX 27 44 4 -3
BITMAP
00FC0000
007C0000
003E0000
001E0000
001F0000
000F0000
00078000
00000000
00000000
F00001E0
F00001E0
F00001E0
F00001E0
F00001E0
F00001E0
F00001E0
F00001E0
F00001E0
F00001E0
F00001E0
F00001E0
F00001E0
F00001E0
F00001E0
F00001E0
F00001E0
F00001E0
F00001E0
F00001E0
F00001E0
F00001E0
F00001E0
F00001E0
F00001E0
F80003E0
780003C0
780003C0
7C0007C0
3E000F80
3FC07F80
1FFFFF00
0FFFFE00
03FFF800
007FC000
ENDCHAR
STARTCHAR 218
ENCODING 218
SWIDTH 2520 0
DWIDTH 35 0
BBX 27 44 4 -3
BITMAP
0003F000
0003E000
0007C000
00078000
000F8000
000F0000
001E0000
00000000
00000000
F00001E0
F00001E0
F00001E0
F00001E0
F00001E0
F00001E0
F00001E0
F00001E0
F00001E0
F00001E0
F00001E0
F00001E0
F00001E0
F00001E0
F00001E0
F00001E0
F00001E0
F00001E0
F00001E0
F00001E0
F00001E0
F00001E0
F00001E0
F00001E0
F00001E0
F80003E0
780003C0
780003C0
7C0007C0
3E000F80
3FC07F80
1FFFFF00
0FFFFE00
03FFF800
007FC000
ENDCHAR
STARTCHAR 219
ENCODING 219
SWIDTH 2520 0
DWIDTH 35 0
BBX 27 44 4 -3
BITMAP
001F0000
003F8000
007FC000
007BC000
00F1E000
01F1F000
03E0F800
00000000
00000000
F00001E0
F00001E0
F00001E0
F00001E0
F00001E0
F00001E0
F00001E0
F00001E0
F00001E0
F00001E0
F00001E0
F00001E0
F00001E0
F00001E0
F00001E0
F00001E0
F00001E0
F00001E0
F00001E0
F00001E0
F00001E0
F00001E0
F00001E0
F00001E0
F00001E0
F80003E0
780003C0
780003C0
7C0007C0
3E000F80
3FC07F80
1FFFFF00
0FFFFE00
03FFF800
007FC000
ENDCHAR
STARTCHAR 220
ENCODING 220
SWIDTH 2520 0
DWIDTH 35 0
BBX 27 43 4 -3
BITMAP
01E0F000
01E0F000
01E0F000
01E0F000
01E0F000
00000000
00000000
00000000
F00001E0
F00001E0
F00001E0
F00001E0
F00001E0
F00001E0
F00001E0
F00001E0
F00001E0
F00001E0
F00001E0
F00001E0
F00001E0
F00001E0
F00001E0
F00001E0
F00001E0
F00001E0
F00001E0
F00001E0
F00001E0
F00001E0
F00001E0
F00001E0
F00001E0
F80003E0
780003C0
780003C0
7C0007C0
3E000F80
3FC07F80
1FFFFF00
0FFFFE00
03FFF800
007FC000
ENDCHAR
STARTCHAR 221
ENCODING 221
SWIDTH 2304 0
DWIDTH 32 0
BBX 32 43 0 -2
BITMAP
0000FC00
0000F800
0001F000
0001E000
0003E000
0003C000
00078000
00000000
00000000
F800001F
7C00003E
3C00003C
1E000078
1F0000F8
0F0000F0
078001E0
07C003E0
03C003C0
01E00780
00F00F00
00F80F00
00781E00
003C3C00
003E7C00
001E7800
000FF000
0007E000
0007E000
0003C000
0003C000
0003C000
0003C000
0003C000
0003C000
0003C000
0003C000
0003C000
0003C000
0003C000
0003C000
0003C000
0003C000
0003C000
ENDCHAR
STARTCHAR 222
ENCODING 222
SWIDTH 2304 0
DWIDTH 32 0
BBX 26 34 4 -2
BITMAP
F0000000
F0000000
F0000000
F0000000
F0000000
F0000000
F0000000
FFFFE000
FFFFFC00
FFFFFE00
FFFFFF00
F0003F80
F0000F80
F0000780
F00003C0
F00003C0
F00003C0
F00003C0
F00003C0
F00007C0
F0000780
F0000F80
F0003F00
FFFFFF00
FFFFFC00
FFFFF800
FFFFC000
F0000000
F0000000
F0000000
F0000000
F0000000
F0000000
F0000000
ENDCHAR
STARTCHAR 223
ENCODING 223
SWIDTH 2088 0
DWIDTH 29 0
BBX 24 36 3 -3
BITMAP
03FC00
0FFF00
1FFF80
3E07C0
7C03E0
7801E0
7801E0
F001E0
F001E0
F003C0
F003C0
F00780
F00780
F00F00
F00F00
F01E00
F01E00
F01E00
F01F00
F00F80
F00FE0
F007F0
F001F8
F000FC
F0003E
F0001F
F0000F
F0000F
F0000F
F0000F
F1E00F
F1F01E
F0F83E
F07FFC
F03FF8
000FE0
ENDCHAR
STARTCHAR 224
ENCODING 224
SWIDTH 1944 0
DWIDTH 27 0
BBX 22 36 2 -3
BITMAP
03F000
01F000
00F800
007800
007C00
003C00
001E00
000000
000000
01FF00
07FFE0
1FFFF0
3F01F8
3C0078
7C007C
78003C
78003C
00003C
00003C
00003C
007FFC
07FFFC
1FFFFC
3F803C
7E003C
78003C
F0003C
F0003C
F0003C
F0003C
F0007C
7801FC
7E07FC
3FFFBC
1FFE3C
07F800
ENDCHAR
STARTCHAR 225
ENCODING 225
SWIDTH 1944 0
DWIDTH 27 0
BBX 22 36 2 -3
BITMAP
000FC0
000F80
001F00
001E00
003E00
003C00
007800
000000
000000
01FF00
07FFE0
1FFFF0
3F01F8
3C0078
7C007C
78003C
78003C
00003C
00003C
00003C
007FFC
07FFFC
1FFFFC
3F803C
7E003C
78003C
F0003C
F0003C
F0003C
F0003C
F0007C
7801FC
7E07FC
3FFFBC
1FFE3C
07F800
ENDCHAR
STARTCHAR 226
ENCODING 226
SWIDTH 1944 0
DWIDTH 27 0
BBX 22 36 2 -3
BITMAP
007C00
00FE00
01FF00
01EF00
03C780
07C7C0
0F83E0
000000
000000
01FF00
07FFE0
1FFFF0
3F01F8
3C0078
7C007C
78003C
78003C
00003C
00003C
00003C
007FFC
07FFFC
1FFFFC
3F803C
7E003C
78003C
F0003C
F0003C
F0003C
F0003C
F0007C
7801FC
7E07FC
3FFFBC
1FFE3C
07F800
ENDCHAR
STARTCHAR 227
ENCODING 227
SWIDTH 1944 0
DWIDTH 27 0
BBX 22 35 2 -3
BITMAP
01E070
07FCF0
07FFE0
0F3FE0
0E0780
000000
000000
000000
01FF00
07FFE0
1FFFF0
3F01F8
3C0078
7C007C
78003C
78003C
00003C
00003C
00003C
007FFC
07FFFC
1FFFFC
3F803C
7E003C
78003C
F0003C
F0003C
F0003C
F0003C
F0007C
7801FC
7E07FC
3FFFBC
1FFE3C
07F800
ENDCHAR
STARTCHAR 228
ENCODING 228
SWIDTH 1944 0
DWIDTH 27 0
BBX 22 35 2 -3
BITMAP
0783C0
0783C0
0783C0
0783C0
0783C0
000000
000000
000000
01FF00
07FFE0
1FFFF0
3F01F8
3C0078
7C007C
78003C
78003C
00003C
00003C
00003C
007FFC
07FFFC
1FFFFC
3F803C
7E003C
78003C
F0003C
F0003C
F0003C
F0003C
F0007C
7801FC
7E07FC
3FFFBC
1FFE3C
07F800
ENDCHAR
STARTCHAR 229
ENCODING 229
SWIDTH 1944 0
DWIDTH 27 0
BBX 22 37 2 -3
BITMAP
003C00
007E00
00E700
00C300
00C300
00E700
007E00
003C00
000000
000000
01FF00
07FFE0
1FFFF0
3F01F8
3C0078
7C007C
78003C
78003C
00003C
00003C
00003C
007FFC
07FFFC
1FFFFC
3F803C
7E003C
78003C
F0003C
F0003C
F0003C
F0003C
F0007C
7801FC
7E07FC
3FFFBC
1FFE3C
07F800
ENDCHAR
STARTCHAR 230
ENCODING 230
SWIDTH 3096 0
DWIDTH 43 0
BBX 39 27 2 -3
BITMAP
01FF00FE00
07FFC3FFC0
1FFFE7FFE0
3F03FF81F0
3C00FF00F8
7C00FE0078
78007C003C
78007C003C
00007C003E
000078001E
000078001E
007FFFFFFE
07FFFFFFFE
1FFFFFFFFE
3F80780000
7C00780000
7800780000
F000780000
F0007C0000
F000FC001E
F000FE001E
F001FE003C
F803DF007C
7C0FCFC1F8
3FFF87FFF0
1FFE03FFE0
07F8007F00
ENDCHAR
STARTCHAR 231
ENCODING 231
SWIDTH 1728 0
DWIDTH 24 0
BBX 21 27 2 -3
BITMAP
00FE00
07FF80
0FFFC0
1F83E0
3E00F0
3C00F0
780078
780078
780000
F00000
F00000
F00000
F00000
F00000
F00000
F00000
F00000
F00000
780000
780078
780078
3C00F0
3E00F0
1F83E0
0FFFC0
07FF80
01FE00
ENDCHAR
STARTCHAR 232
ENCODING 232
SWIDTH 1944 0
DWIDTH 27 0
BBX 23 36 2 -3
BITMAP
03F000
01F000
00F800
007800
007C00
003C00
001E00
000000
000000
00FE00
03FFC0
0FFFE0
1F83F0
3E00F8
3C0078
78003C
78003C
78003E
F0001E
F0001E
FFFFFE
FFFFFE
FFFFFE
F00000
F00000
F00000
F80000
780000
78001E
7C001E
3E003C
1F007C
1F81F8
07FFF0
03FFE0
00FF00
ENDCHAR
STARTCHAR 233
ENCODING 233
SWIDTH 1944 0
DWIDTH 27 0
BBX 23 36 2 -3
BITMAP
000FC0
000F80
001F00
001E00
003E00
003C00
007800
000000
000000
00FE00
03FFC0
0FFFE0
1F83F0
3E00F8
3C0078
78003C
78003C
78003E
F0001E
F0001E
FFFFFE
FFFFFE
FFFFFE
F00000
F00000
F00000
F80000
780000
78001E
7C001E
3E003C
1F007C
1F81F8
07FFF0
03FFE0
00FF00
ENDCHAR
STARTCHAR 234
ENCODING 234
SWIDTH 1944 0
DWIDTH 27 0
BBX 23 36 2 -3
BITMAP
007C00
00FE00
01FF00
01EF00
03C780
07C7C0
0F83E0
000000
000000
00FE00
03FFC0
0FFFE0
1F83F0
3E00F8
3C0078
78003C
78003C
78003E
F0001E
F0001E
FFFFFE
FFFFFE
FFFFFE
F00000
F00000
F00000
F80000
780000
78001E
7C001E
3E003C
1F007C
1F81F8
07FFF0
03FFE0
00FF00
ENDCHAR
STARTCHAR 235
ENCODING 235
SWIDTH 1944 0
DWIDTH 27 0
BBX 23 35 2 -3
BITMAP
0783C0
0783C0
0783C0
0783C0
0783C0
000000
000000
000000
00FE00
03FFC0
0FFFE0
1F83F0
3E00F8
3C0078
78003C
78003C
78003E
F0001E
F0001E
FFFFFE
FFFFFE
FFFFFE
F00000
F00000
F00000
F80000
780000
78001E
7C001E
3E003C
1F007C
1F81F8
07FFF0
03FFE0
00FF00
ENDCHAR
STARTCHAR 236
ENCODING 236
SWIDTH 720 0
DWIDTH 10 0
BBX 8 35 0 -2
BITMAP
F8
F8
7C
3C
3E
1E
0F
00
00
00
1E
1E
1E
1E
1E
1E
1E
1E
1E
1E
1E
1E
1E
1E
1E
1E
1E
1E
1E
1E
1E
1E
1E
1E
1E
ENDCHAR
STARTCHAR 237
ENCODING 237
SWIDTH 720 0
DWIDTH 10 0
BBX 7 35 3 -2
BITMAP
1E
1E
3E
3C
7C
78
F0
00
00
00
F0
F0
F0
F0
F0
F0
F0
F0
F0
F0
F0
F0
F0
F0
F0
F0
F0
F0
F0
F0
F0
F0
F0
F0
F0
ENDCHAR
STARTCHAR 238
ENCODING 238
SWIDTH 720 0
DWIDTH 10 0
BBX 10 35 0 -2
BITMAP
1F00
3F80
7FC0
7BC0
F1C0
F1C0
E0C0
0000
0000
0000
1E00
1E00
1E00
1E00
1E00
1E00
1E00
1E00
1E00
1E00
1E00
1E00
1E00
1E00
1E00
1E00
1E00
1E00
1E00
1E00
1E00
1E00
1E00
1E00
1E00
ENDCHAR
STARTCHAR 239
ENCODING 239
SWIDTH 720 0
DWIDTH 10 0
BBX 10 34 0 -2
BITMAP
E0C0
E0C0
E0C0
E0C0
E0C0
0000
0000
0000
0000
1E00
1E00
1E00
1E00
1E00
1E00
1E00
1E00
1E00
1E00
1E00
1E00
1E00
1E00
1E00
1E00
1E00
1E00
1E00
1E00
1E00
1E00
1E00
1E00
1E00
ENDCHAR
STARTCHAR 240
ENCODING 240
SWIDTH 1944 0
DWIDTH 27 0
BBX 23 35 2 -3
BITMAP
03F020
00F9F0
003FE0
001F80
007F00
01FF80
03C7C0
0103C0
0003E0
00FDF0
07FFF0
0FFFF8
1F83F8
3E00FC
3C007C
78003C
78003C
78003E
F0001E
F0001E
F0001E
F0001E
F0001E
F0001E
F0001E
F0001E
78003C
78003C
78003C
3C0078
3E00F8
1F83F0
0FFFE0
07FFC0
00FE00
ENDCHAR
STARTCHAR 241
ENCODING 241
SWIDTH 1944 0
DWIDTH 27 0
BBX 21 34 3 -2
BITMAP
03C0E0
0FF9E0
0FFFC0
1E7FC0
1C0F00
000000
000000
000000
007F00
F1FFC0
F7FFE0
FFFFF0
FF81F0
FE00F8
FC00F8
F80078
F00078
F00078
F00078
F00078
F00078
F00078
F00078
F00078
F00078
F00078
F00078
F00078
F00078
F00078
F00078
F00078
F00078
F00078
ENDCHAR
STARTCHAR 242
ENCODING 242
SWIDTH 1944 0
DWIDTH 27 0
BBX 23 36 2 -3
BITMAP
03F000
01F000
00F800
007800
007C00
003C00
001E00
000000
000000
00FE00
03FF80
0FFFE0
1F83F0
3E00F8
3C0078
78003C
78003C
78003C
F0001E
F0001E
F0001E
F0001E
F0001E
F0001E
F0001E
F0001E
F0001E
78003C
78003C
78003C
3C0078
3E00F8
1F83F0
0FFFE0
03FF80
00FE00
ENDCHAR
STARTCHAR 243
ENCODING 243
SWIDTH 1944 0
DWIDTH 27 0
BBX 23 36 2 -3
BITMAP
000FC0
000F80
001F00
001E00
003E00
003C00
007800
000000
000000
00FE00
03FF80
0FFFE0
1F83F0
3E00F8
3C0078
78003C
78003C
78003C
F0001E
F0001E
F0001E
F0001E
F0001E
F0001E
F0001E
F0001E
F0001E
78003C
78003C
78003C
3C0078
3E00F8
1F83F0
0FFFE0
03FF80
00FE00
ENDCHAR
STARTCHAR 244
ENCODING 244
SWIDTH 1944 0
DWIDTH 27 0
BBX 23 36 2 -3
BITMAP
007C00
00FE00
01FF00
01EF00
03C780
07C7C0
0F83E0
000000
000000
00FE00
03FF80
0FFFE0
1F83F0
3E00F8
3C0078
78003C
78003C
78003C
F0001E
F0001E
F0001E
F0001E
F0001E
F0001E
F0001E
F0001E
F0001E
78003C
78003C
78003C
3C0078
3E00F8
1F83F0
0FFFE0
03FF80
00FE00
ENDCHAR
STARTCHAR 245
ENCODING 245
SWIDTH 1944 0
DWIDTH 27 0
BBX 23 35 2 -3
BITMAP
01E070
07FCF0
07FFE0
0F3FE0
0E0780
000000
000000
000000
00FE00
03FF80
0FFFE0
1F83F0
3E00F8
3C0078
78003C
78003C
78003C
F0001E
F0001E
F0001E
F0001E
F0001E
F0001E
F0001E
F0001E
F0001E
78003C
78003C
78003C
3C0078
3E00F8
1F83F0
0FFFE0
03FF80
00FE00
ENDCHAR
STARTCHAR 246
ENCODING 246
SWIDTH 1944 0
DWIDTH 27 0
BBX 23 35 2 -3
BITMAP
0783C0
0783C0
0783C0
0783C0
0783C0
000000
000000
000000
00FE00
03FF80
0FFFE0
1F83F0
3E00F8
3C0078
78003C
78003C
78003C
F0001E
F0001E
F0001E
F0001E
F0001E
F0001E
F0001E
F0001E
F0001E
78003C
78003C
78003C
3C0078
3E00F8
1F83F0
0FFFE0
03FF80
00FE00
ENDCHAR
STARTCHAR 247
ENCODING 247
SWIDTH 2016 0
DWIDTH 28 0
BBX 22 20 3 5
BITMAP
007800
007800
007800
007800
007800
000000
000000
000000
FFFFFC
FFFFFC
FFFFFC
FFFFFC
000000
000000
000000
007800
007800
007800
007800
007800
ENDCHAR
STARTCHAR 248
ENCODING 248
SWIDTH 1944 0
DWIDTH 27 0
BBX 23 28 2 -3
BITMAP
000008
00FE1E
03FF9C
0FFFF8
1F83F8
3E00F8
3C00F8
7801FC
7803FC
7807BC
F0071E
F00F1E
F01E1E
F03C1E
F0381E
F0781E
F0F01E
F1E01E
F1C01E
7BC03C
7F803C
7F003C
3E0078
3E00F8
3F83F0
3FFFE0
73FF80
F0FE00
ENDCHAR
STARTCHAR 249
ENCODING 249
SWIDTH 1944 0
DWIDTH 27 0
BBX 21 36 3 -3
BITMAP
07E000
03E000
01F000
00F000
00F800
007800
003C00
000000
000000
000000
F00078
F00078
F00078
F00078
F00078
F00078
F00078
F00078
F00078
F00078
F00078
F00078
F00078
F00078
F00078
F00078
F00078
F00078
F00078
F801F8
7803F8
7C0FF8
7FFFF8
3FFF78
1FFC78
07F000
ENDCHAR
STARTCHAR 250
ENCODING 250
SWIDTH 1944 0
DWIDTH 27 0
BBX 21 36 3 -3
BITMAP
001F80
001F00
003E00
003C00
007C00
007800
00F000
000000
000000
000000
F00078
F00078
F00078
F00078
F00078
F00078
F00078
F00078
F00078
F00078
F00078
F00078
F00078
F00078
F00078
F00078
F00078
F00078
F00078
F801F8
7803F8
7C0FF8
7FFFF8
3FFF78
1FFC78
07F000
ENDCHAR
STARTCHAR 251
ENCODING 251
SWIDTH 1944 0
DWIDTH 27 0
BBX 21 36 3 -3
BITMAP
00F800
01FC00
03FE00
03DE00
078F00
0F8F80
1F07C0
000000
000000
000000
F00078
F00078
F00078
F00078
F00078
F00078
F00078
F00078
F00078
F00078
F00078
F00078
F00078
F00078
F00078
F00078
F00078
F00078
F00078
F801F8
7803F8
7C0FF8
7FFFF8
3FFF78
1FFC78
07F000
ENDCHAR
STARTCHAR 252
ENCODING 252
SWIDTH 1944 0
DWIDTH 27 0
BBX 21 35 3 -3
BITMAP
0F0780
0F0780
0F0780
0F0780
0F0780
000000
000000
000000
000000
F00078
F00078
F00078
F00078
F00078
F00078
F00078
F00078
F00078
F00078
F00078
F00078
F00078
F00078
F00078
F00078
F00078
F00078
F00078
F801F8
7803F8
7C0FF8
7FFFF8
3FFF78
1FFC78
07F000
ENDCHAR
STARTCHAR 253
ENCODING 253
SWIDTH 1728 0
DWIDTH 24 0
BBX 22 36 1 -3
BITMAP
001F80
001F00
003E00
003C00
007C00
007800
00F000
000000
000000
000000
F0003C
780078
780078
780078
3C00F0
3C00F0
3C00F0
1E01E0
1E01E0
1E01E0
0F03C0
0F03C0
070380
078780
078780
038700
03CF00
03CF00
01CE00
01FE00
01FE00
00FC00
00FC00
007800
007800
007800
ENDCHAR
STARTCHAR 254
ENCODING 254
SWIDTH 1944 0
DWIDTH 27 0
BBX 22 35 3 -3
BITMAP
F00000
F00000
F00000
F00000
F00000
F00000
F00000
F00000
F0FE00
F3FF80
F7FFC0
FF83E0
FE01F0
FC00F0
F80078
F00078
F00078
F0003C
F0003C
F0003C
F0003C
F0003C
F0003C
F0003C
F0003C
F0003C
F00078
F00078
F00078
F800F0
FC01F0
FF03E0
FFFFC0
F7FF00
F0FC00
ENDCHAR
STARTCHAR 255
ENCODING 255
SWIDTH 1728 0
DWIDTH 24 0
BBX 22 35 1 -3
BITMAP
0783C0
0783C0
0783C0
0783C0
0783C0
000000
000000
000000
000000
F0003C
780078
780078
780078
3C00F0
3C00F0
3C00F0
1E01E0
1E01E0
1E01E0
0F03C0
0F03C0
070380
078780
078780
038700
03CF00
03CF00
01CE00
01FE00
01FE00
00FC00
00FC00
007800
007800
007800
ENDCHAR
ENDFONT
